<svg width="28" height="28" viewBox="0 0 28 28" fill="none" xmlns="http://www.w3.org/2000/svg">
<mask id="path-1-inside-1_1037_2481" fill="white">
<path d="M22.7496 12.4688C22.081 12.4683 21.4191 12.6015 20.8027 12.8603L17.7675 7.65625H20.9996C21.2896 7.65625 21.5678 7.77148 21.773 7.9766C21.9781 8.18172 22.0933 8.45992 22.0933 8.75C22.0933 8.92405 22.1624 9.09097 22.2855 9.21404C22.4086 9.33711 22.5755 9.40625 22.7496 9.40625C22.9236 9.40625 23.0905 9.33711 23.2136 9.21404C23.3367 9.09097 23.4058 8.92405 23.4058 8.75C23.4058 8.11182 23.1523 7.49978 22.701 7.04852C22.2498 6.59726 21.6377 6.34375 20.9996 6.34375H16.6246C16.5095 6.34406 16.3966 6.37461 16.297 6.43233C16.1975 6.49006 16.1149 6.57293 16.0575 6.67264C16.0002 6.77235 15.97 6.88539 15.9701 7.00044C15.9701 7.11549 16.0005 7.22849 16.058 7.32813L17.5236 9.84375H10.7303L8.87862 6.67188C8.82117 6.57237 8.7386 6.48969 8.63918 6.43211C8.53975 6.37453 8.42695 6.34406 8.31205 6.34375H5.24955C5.07551 6.34375 4.90859 6.41289 4.78552 6.53596C4.66244 6.65903 4.5933 6.82595 4.5933 7C4.5933 7.17405 4.66244 7.34097 4.78552 7.46404C4.90859 7.58711 5.07551 7.65625 5.24955 7.65625H7.93471L9.57534 10.4606L7.6558 13.0834C6.53036 12.4657 5.21204 12.2993 3.96839 12.618C2.72474 12.9367 1.64893 13.7166 0.959284 14.7995C0.269641 15.8823 0.0178346 17.187 0.254968 18.4488C0.492102 19.7105 1.20041 20.8348 2.23614 21.5934C3.27188 22.352 4.55744 22.6881 5.83194 22.5336C7.10644 22.379 8.27439 21.7453 9.09875 20.7611C9.92312 19.7769 10.3421 18.5159 10.2708 17.2341C10.1994 15.9522 9.64306 14.7455 8.71455 13.8589L10.2928 11.7031L13.8705 17.8281C13.928 17.9278 14.0108 18.0106 14.1104 18.0682C14.21 18.1258 14.3231 18.1561 14.4381 18.1563C14.5536 18.1562 14.6669 18.1253 14.7663 18.0666C14.9164 17.9789 15.0257 17.8352 15.07 17.667C15.1143 17.4988 15.09 17.32 15.0025 17.1697L11.4949 11.1541H18.2881L19.6696 13.5231C18.7279 14.2529 18.0757 15.2931 17.8291 16.4586C17.5825 17.6242 17.7576 18.8394 18.323 19.888C18.8885 20.9366 19.8077 21.7505 20.917 22.1849C22.0263 22.6193 23.2538 22.6459 24.3809 22.2601C25.5081 21.8742 26.4617 21.1009 27.0721 20.0778C27.6825 19.0548 27.9101 17.8483 27.7143 16.6731C27.5185 15.498 26.912 14.4304 26.0029 13.6605C25.0937 12.8906 23.9409 12.4683 22.7496 12.4688ZM8.9683 17.5C8.96844 18.3074 8.70583 19.0928 8.22013 19.7378C7.73444 20.3827 7.05205 20.8521 6.27606 21.0749C5.50006 21.2978 4.67261 21.262 3.91872 20.9731C3.16483 20.6842 2.52545 20.1577 2.09716 19.4733C1.66888 18.7889 1.47496 17.9837 1.54471 17.1794C1.61445 16.375 1.94407 15.6152 2.48376 15.0148C3.02346 14.4143 3.74391 14.0058 4.53629 13.8509C5.32866 13.6961 6.14991 13.8033 6.87596 14.1564L4.71909 17.1095C4.6164 17.2502 4.5738 17.4259 4.60067 17.598C4.62754 17.7701 4.72168 17.9245 4.86237 18.0272C5.00306 18.1299 5.17878 18.1725 5.35087 18.1456C5.52296 18.1187 5.67733 18.0246 5.78002 17.8839L7.93471 14.9308C8.59833 15.6214 8.96876 16.5422 8.9683 17.5ZM22.7496 21.2188C21.9898 21.2171 21.2487 20.9828 20.6261 20.5473C20.0035 20.1118 19.5293 19.496 19.2672 18.7828C19.0051 18.0697 18.9677 17.2934 19.1601 16.5583C19.3525 15.8233 19.7654 15.1648 20.3433 14.6716L22.183 17.8281C22.2405 17.9278 22.3233 18.0106 22.4229 18.0682C22.5225 18.1258 22.6356 18.1561 22.7506 18.1563C22.8661 18.1562 22.9794 18.1253 23.0788 18.0666C23.2289 17.9789 23.3382 17.8352 23.3825 17.667C23.4268 17.4988 23.4025 17.32 23.315 17.1697L21.471 14.0077C21.9811 13.821 22.526 13.7484 23.0673 13.7949C23.6085 13.8415 24.133 14.006 24.6038 14.277C25.0747 14.548 25.4804 14.9189 25.7925 15.3636C26.1046 15.8082 26.3155 16.3158 26.4103 16.8508C26.5052 17.3857 26.4817 17.9349 26.3415 18.4597C26.2013 18.9846 25.9478 19.4723 25.5988 19.8887C25.2499 20.305 24.814 20.6399 24.3217 20.8697C23.8294 21.0995 23.2928 21.2186 22.7496 21.2188Z"/>
</mask>
<path d="M22.7496 12.4688C22.081 12.4683 21.4191 12.6015 20.8027 12.8603L17.7675 7.65625H20.9996C21.2896 7.65625 21.5678 7.77148 21.773 7.9766C21.9781 8.18172 22.0933 8.45992 22.0933 8.75C22.0933 8.92405 22.1624 9.09097 22.2855 9.21404C22.4086 9.33711 22.5755 9.40625 22.7496 9.40625C22.9236 9.40625 23.0905 9.33711 23.2136 9.21404C23.3367 9.09097 23.4058 8.92405 23.4058 8.75C23.4058 8.11182 23.1523 7.49978 22.701 7.04852C22.2498 6.59726 21.6377 6.34375 20.9996 6.34375H16.6246C16.5095 6.34406 16.3966 6.37461 16.297 6.43233C16.1975 6.49006 16.1149 6.57293 16.0575 6.67264C16.0002 6.77235 15.97 6.88539 15.9701 7.00044C15.9701 7.11549 16.0005 7.22849 16.058 7.32813L17.5236 9.84375H10.7303L8.87862 6.67188C8.82117 6.57237 8.7386 6.48969 8.63918 6.43211C8.53975 6.37453 8.42695 6.34406 8.31205 6.34375H5.24955C5.07551 6.34375 4.90859 6.41289 4.78552 6.53596C4.66244 6.65903 4.5933 6.82595 4.5933 7C4.5933 7.17405 4.66244 7.34097 4.78552 7.46404C4.90859 7.58711 5.07551 7.65625 5.24955 7.65625H7.93471L9.57534 10.4606L7.6558 13.0834C6.53036 12.4657 5.21204 12.2993 3.96839 12.618C2.72474 12.9367 1.64893 13.7166 0.959284 14.7995C0.269641 15.8823 0.0178346 17.187 0.254968 18.4488C0.492102 19.7105 1.20041 20.8348 2.23614 21.5934C3.27188 22.352 4.55744 22.6881 5.83194 22.5336C7.10644 22.379 8.27439 21.7453 9.09875 20.7611C9.92312 19.7769 10.3421 18.5159 10.2708 17.2341C10.1994 15.9522 9.64306 14.7455 8.71455 13.8589L10.2928 11.7031L13.8705 17.8281C13.928 17.9278 14.0108 18.0106 14.1104 18.0682C14.21 18.1258 14.3231 18.1561 14.4381 18.1563C14.5536 18.1562 14.6669 18.1253 14.7663 18.0666C14.9164 17.9789 15.0257 17.8352 15.07 17.667C15.1143 17.4988 15.09 17.32 15.0025 17.1697L11.4949 11.1541H18.2881L19.6696 13.5231C18.7279 14.2529 18.0757 15.2931 17.8291 16.4586C17.5825 17.6242 17.7576 18.8394 18.323 19.888C18.8885 20.9366 19.8077 21.7505 20.917 22.1849C22.0263 22.6193 23.2538 22.6459 24.3809 22.2601C25.5081 21.8742 26.4617 21.1009 27.0721 20.0778C27.6825 19.0548 27.9101 17.8483 27.7143 16.6731C27.5185 15.498 26.912 14.4304 26.0029 13.6605C25.0937 12.8906 23.9409 12.4683 22.7496 12.4688ZM8.9683 17.5C8.96844 18.3074 8.70583 19.0928 8.22013 19.7378C7.73444 20.3827 7.05205 20.8521 6.27606 21.0749C5.50006 21.2978 4.67261 21.262 3.91872 20.9731C3.16483 20.6842 2.52545 20.1577 2.09716 19.4733C1.66888 18.7889 1.47496 17.9837 1.54471 17.1794C1.61445 16.375 1.94407 15.6152 2.48376 15.0148C3.02346 14.4143 3.74391 14.0058 4.53629 13.8509C5.32866 13.6961 6.14991 13.8033 6.87596 14.1564L4.71909 17.1095C4.6164 17.2502 4.5738 17.4259 4.60067 17.598C4.62754 17.7701 4.72168 17.9245 4.86237 18.0272C5.00306 18.1299 5.17878 18.1725 5.35087 18.1456C5.52296 18.1187 5.67733 18.0246 5.78002 17.8839L7.93471 14.9308C8.59833 15.6214 8.96876 16.5422 8.9683 17.5ZM22.7496 21.2188C21.9898 21.2171 21.2487 20.9828 20.6261 20.5473C20.0035 20.1118 19.5293 19.496 19.2672 18.7828C19.0051 18.0697 18.9677 17.2934 19.1601 16.5583C19.3525 15.8233 19.7654 15.1648 20.3433 14.6716L22.183 17.8281C22.2405 17.9278 22.3233 18.0106 22.4229 18.0682C22.5225 18.1258 22.6356 18.1561 22.7506 18.1563C22.8661 18.1562 22.9794 18.1253 23.0788 18.0666C23.2289 17.9789 23.3382 17.8352 23.3825 17.667C23.4268 17.4988 23.4025 17.32 23.315 17.1697L21.471 14.0077C21.9811 13.821 22.526 13.7484 23.0673 13.7949C23.6085 13.8415 24.133 14.006 24.6038 14.277C25.0747 14.548 25.4804 14.9189 25.7925 15.3636C26.1046 15.8082 26.3155 16.3158 26.4103 16.8508C26.5052 17.3857 26.4817 17.9349 26.3415 18.4597C26.2013 18.9846 25.9478 19.4723 25.5988 19.8887C25.2499 20.305 24.814 20.6399 24.3217 20.8697C23.8294 21.0995 23.2928 21.2186 22.7496 21.2188Z" fill="#FA891A"/>
<path d="M22.7496 12.4688L22.7471 16.4688L22.751 16.4688L22.7496 12.4688ZM20.8027 12.8603L17.3474 14.8755L19.1155 17.9072L22.3514 16.5483L20.8027 12.8603ZM17.7675 7.65625V3.65625H10.804L14.3122 9.67146L17.7675 7.65625ZM22.0933 8.75H26.0933H22.0933ZM16.6246 6.34375V2.34374L16.6138 2.34376L16.6246 6.34375ZM16.058 7.32813L12.5939 9.32814L12.5978 9.33495L12.6018 9.34174L16.058 7.32813ZM17.5236 9.84375V13.8438H24.4834L20.9798 7.83014L17.5236 9.84375ZM10.7303 9.84375L7.27591 11.8604L8.43377 13.8438H10.7303V9.84375ZM8.87862 6.67188L5.41451 8.67186L5.41933 8.68021L5.42419 8.68854L8.87862 6.67188ZM8.31205 6.34375L8.32283 2.34375H8.31205V6.34375ZM5.24955 6.34375V2.34375V6.34375ZM4.5933 7H0.593305H4.5933ZM7.93471 7.65625L11.3873 5.63641L10.2288 3.65625H7.93471V7.65625ZM9.57534 10.4606L12.8032 12.823L14.3529 10.7056L13.0279 8.44079L9.57534 10.4606ZM7.6558 13.0834L5.73109 16.5899L8.80964 18.2797L10.8837 15.4458L7.6558 13.0834ZM8.71455 13.8589L5.48706 11.496L3.41376 14.3279L5.95211 16.7518L8.71455 13.8589ZM10.2928 11.7031L13.7468 9.68565L10.6695 4.41729L7.06534 9.34023L10.2928 11.7031ZM13.8705 17.8281L17.3346 15.8281L17.3295 15.8194L17.3244 15.8106L13.8705 17.8281ZM14.4381 18.1563L14.434 22.1563H14.4386L14.4381 18.1563ZM14.7663 18.0666L12.7494 14.6123L12.7406 14.6174L12.732 14.6225L14.7663 18.0666ZM15.0025 17.1697L18.4594 15.1573L18.458 15.1548L15.0025 17.1697ZM11.4949 11.1541V7.15406H4.53218L8.03939 13.1689L11.4949 11.1541ZM18.2881 11.1541L21.7436 9.13918L20.5861 7.15406H18.2881V11.1541ZM19.6696 13.5231L22.1197 16.6849L24.8912 14.5371L23.125 11.5082L19.6696 13.5231ZM8.9683 17.5L4.9683 17.4981L4.9683 17.5007L8.9683 17.5ZM6.87596 14.1564L10.1061 16.5156L12.9282 12.6518L8.62537 10.5592L6.87596 14.1564ZM4.71909 17.1095L1.48891 14.7503L1.48818 14.7513L4.71909 17.1095ZM5.78002 17.8839L9.01093 20.2421L9.01134 20.2416L5.78002 17.8839ZM7.93471 14.9308L10.819 12.1594L7.51453 8.72029L4.70339 12.5731L7.93471 14.9308ZM22.7496 21.2188L22.7409 25.2188L22.7505 25.2188L22.7496 21.2188ZM20.3433 14.6716L23.7992 12.6574L21.3882 8.52058L17.7464 11.6292L20.3433 14.6716ZM22.183 17.8281L25.6471 15.8281L25.643 15.821L25.6389 15.814L22.183 17.8281ZM22.7506 18.1563L22.7465 22.1563H22.7511L22.7506 18.1563ZM23.0788 18.0666L21.0619 14.6123L21.0531 14.6174L21.0445 14.6225L23.0788 18.0666ZM23.315 17.1697L26.7719 15.1573L26.7704 15.1546L23.315 17.1697ZM21.471 14.0077L20.0966 10.2512L15.6075 11.8936L18.0156 16.0228L21.471 14.0077ZM22.7496 12.4688L22.752 8.46875C21.5508 8.46801 20.3615 8.7072 19.254 9.1723L20.8027 12.8603L22.3514 16.5483C22.4767 16.4957 22.6112 16.4687 22.7471 16.4688L22.7496 12.4688ZM20.8027 12.8603L24.258 10.8451L21.2228 5.64104L17.7675 7.65625L14.3122 9.67146L17.3474 14.8755L20.8027 12.8603ZM17.7675 7.65625V11.6562H20.9996V7.65625V3.65625H17.7675V7.65625ZM20.9996 7.65625V11.6562C20.2288 11.6562 19.4896 11.3501 18.9445 10.805L21.773 7.9766L24.6014 5.14818C23.6461 4.19291 22.3505 3.65625 20.9996 3.65625V7.65625ZM21.773 7.9766L18.9445 10.805C18.3995 10.26 18.0933 9.52077 18.0933 8.75H22.0933H26.0933C26.0933 7.39907 25.5567 6.10345 24.6014 5.14818L21.773 7.9766ZM22.0933 8.75H18.0933C18.0933 9.98492 18.5839 11.1693 19.4571 12.0425L22.2855 9.21404L25.1139 6.38561C25.741 7.01268 26.0933 7.86318 26.0933 8.75H22.0933ZM22.2855 9.21404L19.4571 12.0425C20.3303 12.9157 21.5146 13.4062 22.7496 13.4062V9.40625V5.40625C23.6364 5.40625 24.4869 5.75854 25.1139 6.38561L22.2855 9.21404ZM22.7496 9.40625V13.4062C23.9845 13.4062 25.1688 12.9157 26.042 12.0425L23.2136 9.21404L20.3852 6.38561C21.0122 5.75853 21.8627 5.40625 22.7496 5.40625V9.40625ZM23.2136 9.21404L26.042 12.0425C26.9152 11.1692 27.4058 9.9849 27.4058 8.75H23.4058H19.4058C19.4058 7.8632 19.7581 7.0127 20.3852 6.38561L23.2136 9.21404ZM23.4058 8.75H27.4058C27.4058 7.05096 26.7309 5.4215 25.5295 4.2201L22.701 7.04852L19.8726 9.87695C19.5737 9.57807 19.4058 9.17269 19.4058 8.75H23.4058ZM22.701 7.04852L25.5295 4.2201C24.3281 3.01869 22.6986 2.34375 20.9996 2.34375V6.34375V10.3438C20.5769 10.3438 20.1715 10.1758 19.8726 9.87695L22.701 7.04852ZM20.9996 6.34375V2.34375H16.6246V6.34375V10.3438H20.9996V6.34375ZM16.6246 6.34375L16.6138 2.34376C15.7975 2.34596 14.9962 2.56271 14.2901 2.97227L16.297 6.43233L18.304 9.89239C17.797 10.1865 17.2215 10.3422 16.6353 10.3437L16.6246 6.34375ZM16.297 6.43233L14.2901 2.97227C13.584 3.38184 12.9979 3.96983 12.5908 4.67731L16.0575 6.67264L19.5243 8.66797C19.2319 9.17602 18.8111 9.59827 18.304 9.89239L16.297 6.43233ZM16.0575 6.67264L12.5908 4.67731C12.1836 5.38479 11.9695 6.18687 11.9701 7.00314L15.9701 7.00044L19.9701 6.99774C19.9705 7.58392 19.8168 8.15991 19.5243 8.66797L16.0575 6.67264ZM15.9701 7.00044L11.9701 7.00314C11.9706 7.81942 12.1858 8.62121 12.5939 9.32814L16.058 7.32813L19.5221 5.32811C19.8152 5.83577 19.9697 6.41155 19.9701 6.99774L15.9701 7.00044ZM16.058 7.32813L12.6018 9.34174L14.0674 11.8574L17.5236 9.84375L20.9798 7.83014L19.5142 5.31451L16.058 7.32813ZM17.5236 9.84375V5.84375H10.7303V9.84375V13.8438H17.5236V9.84375ZM10.7303 9.84375L14.1848 7.82708L12.333 4.65521L8.87862 6.67188L5.42419 8.68854L7.27591 11.8604L10.7303 9.84375ZM8.87862 6.67188L12.3427 4.67189C11.9351 3.96589 11.3493 3.37927 10.6439 2.97071L8.63918 6.43211L6.63451 9.89351C6.12791 9.60012 5.70722 9.17886 5.41451 8.67186L8.87862 6.67188ZM8.63918 6.43211L10.6439 2.97071C9.9384 2.56215 9.13804 2.34596 8.32283 2.34376L8.31205 6.34375L8.30128 10.3437C7.71586 10.3422 7.14111 10.1869 6.63451 9.89351L8.63918 6.43211ZM8.31205 6.34375V2.34375H5.24955V6.34375V10.3438H8.31205V6.34375ZM5.24955 6.34375V2.34375C4.01464 2.34375 2.83031 2.83432 1.95709 3.70753L4.78552 6.53596L7.61394 9.36439C6.98687 9.99146 6.13637 10.3438 5.24955 10.3438V6.34375ZM4.78552 6.53596L1.95709 3.70753C1.08387 4.58075 0.593305 5.76509 0.593305 7H4.5933H8.5933C8.5933 7.88681 8.24102 8.73731 7.61394 9.36439L4.78552 6.53596ZM4.5933 7H0.593305C0.593305 8.23491 1.08387 9.41925 1.95709 10.2925L4.78552 7.46404L7.61394 4.63561C8.24102 5.26269 8.5933 6.11318 8.5933 7H4.5933ZM4.78552 7.46404L1.95709 10.2925C2.8303 11.1657 4.01464 11.6562 5.24955 11.6562V7.65625V3.65625C6.13638 3.65625 6.98687 4.00854 7.61394 4.63561L4.78552 7.46404ZM5.24955 7.65625V11.6562H7.93471V7.65625V3.65625H5.24955V7.65625ZM7.93471 7.65625L4.48214 9.67609L6.12276 12.4805L9.57534 10.4606L13.0279 8.44079L11.3873 5.63641L7.93471 7.65625ZM9.57534 10.4606L6.34745 8.09826L4.42792 10.7211L7.6558 13.0834L10.8837 15.4458L12.8032 12.823L9.57534 10.4606ZM7.6558 13.0834L9.58052 9.57695C7.56458 8.4704 5.20314 8.1723 2.97545 8.74316L3.96839 12.618L4.96133 16.4928C5.22095 16.4262 5.49615 16.461 5.73109 16.5899L7.6558 13.0834ZM3.96839 12.618L2.97545 8.74316C0.747766 9.31402 -1.17928 10.7111 -2.4146 12.6508L0.959284 14.7995L4.33317 16.9482C4.47713 16.7221 4.70171 16.5593 4.96133 16.4928L3.96839 12.618ZM0.959284 14.7995L-2.4146 12.6508C-3.64992 14.5905 -4.10097 16.9275 -3.67621 19.1876L0.254968 18.4488L4.18614 17.71C4.13664 17.4466 4.18921 17.1742 4.33317 16.9482L0.959284 14.7995ZM0.254968 18.4488L-3.67621 19.1876C-3.25144 21.4477 -1.98269 23.4615 -0.127431 24.8204L2.23614 21.5934L4.59972 18.3664C4.38351 18.2081 4.23565 17.9734 4.18614 17.71L0.254968 18.4488ZM2.23614 21.5934L-0.127431 24.8204C1.72783 26.1793 4.03059 26.7814 6.31353 26.5045L5.83194 22.5336L5.35035 18.5627C5.0843 18.5949 4.81593 18.5248 4.59972 18.3664L2.23614 21.5934ZM5.83194 22.5336L6.31353 26.5045C8.59647 26.2276 10.6886 25.0925 12.1652 23.3296L9.09875 20.7611L6.03231 18.1927C5.86022 18.3981 5.61641 18.5304 5.35035 18.5627L5.83194 22.5336ZM9.09875 20.7611L12.1652 23.3296C13.6418 21.5666 14.3924 19.3079 14.2646 17.0118L10.2708 17.2341L6.27698 17.4564C6.29187 17.724 6.2044 17.9872 6.03231 18.1927L9.09875 20.7611ZM10.2708 17.2341L14.2646 17.0118C14.1368 14.7157 13.1402 12.5542 11.477 10.966L8.71455 13.8589L5.95211 16.7518C6.14594 16.9369 6.26208 17.1888 6.27698 17.4564L10.2708 17.2341ZM8.71455 13.8589L11.942 16.2218L13.5203 14.066L10.2928 11.7031L7.06534 9.34023L5.48706 11.496L8.71455 13.8589ZM10.2928 11.7031L6.83888 13.7206L10.4165 19.8456L13.8705 17.8281L17.3244 15.8106L13.7468 9.68565L10.2928 11.7031ZM13.8705 17.8281L10.4064 19.8281C10.8147 20.5353 11.4017 21.1226 12.1086 21.5312L14.1104 18.0682L16.1122 14.6051C16.6198 14.8985 17.0414 15.3203 17.3346 15.8281L13.8705 17.8281ZM14.1104 18.0682L12.1086 21.5312C12.8155 21.9398 13.6175 22.1554 14.434 22.1562L14.4381 18.1563L14.4422 14.1563C15.0287 14.1569 15.6046 14.3117 16.1122 14.6051L14.1104 18.0682ZM14.4381 18.1563L14.4386 22.1563C15.2695 22.1562 16.0852 21.9332 16.8006 21.5106L14.7663 18.0666L12.732 14.6225C13.2486 14.3173 13.8377 14.1563 14.4377 14.1563L14.4381 18.1563ZM14.7663 18.0666L16.7832 21.5208C17.8487 20.8987 18.6237 19.8791 18.938 18.6859L15.07 17.667L11.2019 16.6481C11.4276 15.7913 11.9842 15.0591 12.7494 14.6123L14.7663 18.0666ZM15.07 17.667L18.938 18.6859C19.2523 17.4928 19.0802 16.2236 18.4594 15.1573L15.0025 17.1697L11.5456 19.1821C11.0998 18.4163 10.9762 17.5049 11.2019 16.6481L15.07 17.667ZM15.0025 17.1697L18.458 15.1548L14.9503 9.1392L11.4949 11.1541L8.03939 13.1689L11.547 19.1845L15.0025 17.1697ZM11.4949 11.1541V15.1541H18.2881V11.1541V7.15406H11.4949V11.1541ZM18.2881 11.1541L14.8327 13.169L16.2141 15.538L19.6696 13.5231L23.125 11.5082L21.7436 9.13918L18.2881 11.1541ZM19.6696 13.5231L17.2194 10.3614C15.529 11.6713 14.3584 13.5386 13.9157 15.6307L17.8291 16.4586L21.7425 17.2866C21.793 17.0477 21.9267 16.8344 22.1197 16.6849L19.6696 13.5231ZM17.8291 16.4586L13.9157 15.6307C13.4731 17.7229 13.7873 19.9043 14.8023 21.7866L18.323 19.888L21.8437 17.9895C21.7278 17.7745 21.692 17.5255 21.7425 17.2866L17.8291 16.4586ZM18.323 19.888L14.8023 21.7866C15.8173 23.6688 17.4673 25.1298 19.4586 25.9096L20.917 22.1849L22.3754 18.4603C22.148 18.3712 21.9596 18.2044 21.8437 17.9895L18.323 19.888ZM20.917 22.1849L19.4586 25.9096C21.4499 26.6893 23.6532 26.7371 25.6764 26.0445L24.3809 22.2601L23.0854 18.4757C22.8544 18.5548 22.6028 18.5493 22.3754 18.4603L20.917 22.1849ZM24.3809 22.2601L25.6764 26.0445C27.6997 25.3518 29.4115 23.9638 30.5072 22.1273L27.0721 20.0778L23.637 18.0284C23.5119 18.2381 23.3165 18.3966 23.0854 18.4757L24.3809 22.2601ZM27.0721 20.0778L30.5072 22.1273C31.6029 20.2908 32.0113 18.1251 31.6599 16.0157L27.7143 16.6731L23.7687 17.3305C23.8088 17.5714 23.7621 17.8187 23.637 18.0284L27.0721 20.0778ZM27.7143 16.6731L31.6599 16.0157C31.3084 13.9063 30.2198 11.99 28.5879 10.608L26.0029 13.6605L23.4179 16.713C23.6042 16.8708 23.7285 17.0896 23.7687 17.3305L27.7143 16.6731ZM26.0029 13.6605L28.5879 10.608C26.956 9.22603 24.8866 8.46795 22.7481 8.46875L22.7496 12.4688L22.751 16.4688C22.9952 16.4687 23.2315 16.5552 23.4179 16.713L26.0029 13.6605ZM8.9683 17.5L4.9683 17.5007C4.96829 17.4396 4.98816 17.3802 5.02489 17.3314L8.22013 19.7378L11.4154 22.1441C12.4235 20.8055 12.9686 19.1751 12.9683 17.4993L8.9683 17.5ZM8.22013 19.7378L5.02489 17.3314C5.06162 17.2827 5.11323 17.2472 5.17192 17.2303L6.27605 21.0749L7.38019 24.9195C8.99087 24.4569 10.4073 23.4827 11.4154 22.1441L8.22013 19.7378ZM6.27605 21.0749L5.17192 17.2303C5.23061 17.2135 5.29319 17.2162 5.35021 17.238L3.91872 20.9731L2.48724 24.7082C4.05204 25.3079 5.76951 25.3821 7.38019 24.9195L6.27605 21.0749ZM3.91872 20.9731L5.35021 17.238C5.40722 17.2599 5.45558 17.2997 5.48797 17.3514L2.09716 19.4733L-1.29365 21.5952C-0.404689 23.0158 0.922436 24.1085 2.48724 24.7082L3.91872 20.9731ZM2.09716 19.4733L5.48797 17.3514C5.52036 17.4032 5.53503 17.4641 5.52975 17.5249L1.54471 17.1794L-2.44034 16.8338C-2.58511 18.5034 -2.18261 20.1747 -1.29365 21.5952L2.09716 19.4733ZM1.54471 17.1794L5.52975 17.5249C5.52448 17.5858 5.49955 17.6432 5.45873 17.6886L2.48376 15.0148L-0.491202 12.3409C-1.61141 13.5873 -2.29558 15.1643 -2.44034 16.8338L1.54471 17.1794ZM2.48376 15.0148L5.45873 17.6886C5.41792 17.7341 5.36343 17.765 5.3035 17.7767L4.53629 13.8509L3.76908 9.9252C2.1244 10.2466 0.629006 11.0946 -0.491202 12.3409L2.48376 15.0148ZM4.53629 13.8509L5.3035 17.7767C5.24358 17.7884 5.18146 17.7803 5.12655 17.7536L6.87596 14.1564L8.62537 10.5592C7.11835 9.82633 5.41375 9.60378 3.76908 9.9252L4.53629 13.8509ZM6.87596 14.1564L3.64578 11.7972L1.48891 14.7503L4.71909 17.1095L7.94926 19.4688L10.1061 16.5156L6.87596 14.1564ZM4.71909 17.1095L1.48818 14.7513C0.760047 15.7489 0.458029 16.9949 0.648558 18.2151L4.60067 17.598L8.55279 16.981C8.68958 17.857 8.47275 18.7516 7.94999 19.4678L4.71909 17.1095ZM4.60067 17.598L0.648558 18.2151C0.839086 19.4354 1.50655 20.53 2.50414 21.2581L4.86237 18.0272L7.2206 14.7963C7.9368 15.319 8.416 16.1049 8.55279 16.981L4.60067 17.598ZM4.86237 18.0272L2.50414 21.2581C3.50175 21.9862 4.74772 22.2882 5.96795 22.0977L5.35087 18.1456L4.73379 14.1935C5.60983 14.0567 6.50436 14.2735 7.2206 14.7963L4.86237 18.0272ZM5.35087 18.1456L5.96795 22.0977C7.18819 21.9072 8.28279 21.2397 9.01093 20.2421L5.78002 17.8839L2.54912 15.5257C3.07188 14.8095 3.85774 14.3303 4.73379 14.1935L5.35087 18.1456ZM5.78002 17.8839L9.01134 20.2416L11.166 17.2884L7.93471 14.9308L4.70339 12.5731L2.54871 15.5262L5.78002 17.8839ZM7.93471 14.9308L5.05041 17.7022C4.99769 17.6473 4.96827 17.5742 4.9683 17.4981L8.9683 17.5L12.9683 17.5019C12.9692 15.5102 12.199 13.5955 10.819 12.1594L7.93471 14.9308ZM22.7496 21.2188L22.7582 17.2188C22.8157 17.2189 22.8718 17.2366 22.9188 17.2695L20.6261 20.5473L18.3334 23.825C19.6257 24.7289 21.1638 25.2153 22.7409 25.2187L22.7496 21.2188ZM20.6261 20.5473L22.9188 17.2695C22.9659 17.3025 23.0018 17.349 23.0216 17.403L19.2672 18.7828L15.5127 20.1627C16.0567 21.6429 17.0411 22.921 18.3334 23.825L20.6261 20.5473ZM19.2672 18.7828L23.0216 17.403C23.0414 17.4569 23.0443 17.5156 23.0297 17.5712L19.1601 16.5583L15.2905 15.5454C14.8911 17.0711 14.9687 18.6825 15.5127 20.1627L19.2672 18.7828ZM19.1601 16.5583L23.0297 17.5712C23.0152 17.6268 22.9839 17.6766 22.9402 17.7139L20.3433 14.6716L17.7464 11.6292C16.5469 12.6531 15.6898 14.0198 15.2905 15.5454L19.1601 16.5583ZM20.3433 14.6716L16.8874 16.6857L18.7271 19.8423L22.183 17.8281L25.6389 15.814L23.7992 12.6574L20.3433 14.6716ZM22.183 17.8281L18.7189 19.8281C19.1272 20.5353 19.7142 21.1226 20.4211 21.5312L22.4229 18.0682L24.4247 14.6051C24.9323 14.8985 25.3539 15.3203 25.6471 15.8281L22.183 17.8281ZM22.4229 18.0682L20.4211 21.5312C21.128 21.9398 21.93 22.1554 22.7465 22.1562L22.7506 18.1563L22.7547 14.1563C23.3412 14.1569 23.9171 14.3117 24.4247 14.6051L22.4229 18.0682ZM22.7506 18.1563L22.7511 22.1563C23.582 22.1562 24.3977 21.9332 25.1131 21.5106L23.0788 18.0666L21.0445 14.6225C21.5611 14.3173 22.1502 14.1563 22.7502 14.1563L22.7506 18.1563ZM23.0788 18.0666L25.0957 21.5208C26.1612 20.8987 26.9362 19.8791 27.2505 18.6859L23.3825 17.667L19.5144 16.6481C19.7401 15.7913 20.2967 15.0591 21.0619 14.6123L23.0788 18.0666ZM23.3825 17.667L27.2505 18.6859C27.5648 17.4928 27.3927 16.2236 26.7719 15.1573L23.315 17.1697L19.8581 19.1821C19.4123 18.4163 19.2887 17.5049 19.5144 16.6481L23.3825 17.667ZM23.315 17.1697L26.7704 15.1546L24.9263 11.9925L21.471 14.0077L18.0156 16.0228L19.8597 19.1848L23.315 17.1697ZM21.471 14.0077L22.8453 17.7641C22.8068 17.7782 22.7656 17.7837 22.7246 17.7802L23.0673 13.7949L23.4099 9.80963C22.2865 9.71303 21.1555 9.86375 20.0966 10.2512L21.471 14.0077ZM23.0673 13.7949L22.7246 17.7802C22.6837 17.7767 22.644 17.7643 22.6084 17.7438L24.6038 14.277L26.5993 10.8103C25.622 10.2478 24.5334 9.90622 23.4099 9.80963L23.0673 13.7949ZM24.6038 14.277L22.6084 17.7438C22.5728 17.7233 22.5421 17.6952 22.5185 17.6616L25.7925 15.3636L29.0665 13.0655C28.4187 12.1426 27.5766 11.3728 26.5993 10.8103L24.6038 14.277ZM25.7925 15.3636L22.5185 17.6616C22.4949 17.628 22.4789 17.5896 22.4718 17.5491L26.4103 16.8508L30.3489 16.1524C30.152 15.0421 29.7143 13.9885 29.0665 13.0655L25.7925 15.3636ZM26.4103 16.8508L22.4718 17.5491C22.4646 17.5087 22.4664 17.4671 22.477 17.4274L26.3415 18.4597L30.206 19.492C30.497 18.4026 30.5458 17.2627 30.3489 16.1524L26.4103 16.8508ZM26.3415 18.4597L22.477 17.4274C22.4876 17.3877 22.5068 17.3508 22.5331 17.3193L25.5988 19.8887L28.6645 22.458C29.3888 21.5938 29.915 20.5814 30.206 19.492L26.3415 18.4597ZM25.5988 19.8887L22.5331 17.3193C22.5595 17.2879 22.5925 17.2625 22.6297 17.2452L24.3217 20.8697L26.0137 24.4942C27.0354 24.0173 27.9402 23.3222 28.6645 22.458L25.5988 19.8887ZM24.3217 20.8697L22.6297 17.2452C22.667 17.2278 22.7076 17.2188 22.7486 17.2188L22.7496 21.2188L22.7505 25.2188C23.8781 25.2185 24.9919 24.9712 26.0137 24.4942L24.3217 20.8697Z" fill="#FA891A" mask="url(#path-1-inside-1_1037_2481)"/>
</svg>
