<svg width="22" height="22" viewBox="0 0 22 22" fill="none" xmlns="http://www.w3.org/2000/svg">
<path d="M20.1388 16.8027C20.1388 17.1327 20.0655 17.4718 19.9097 17.8018C19.7538 18.1318 19.5522 18.4435 19.2863 18.7368C18.8372 19.2318 18.3422 19.5893 17.783 19.8185C17.233 20.0477 16.6372 20.1668 15.9955 20.1668C15.0605 20.1668 14.0613 19.9468 13.0072 19.4977C11.953 19.0485 10.8988 18.4435 9.85384 17.6827C8.79968 16.9127 7.80051 16.0602 6.84717 15.116C5.90301 14.1627 5.05051 13.1635 4.28967 12.1185C3.53801 11.0735 2.93301 10.0285 2.49301 8.99266C2.05301 7.94766 1.83301 6.9485 1.83301 5.99516C1.83301 5.37183 1.94301 4.776 2.16301 4.226C2.38301 3.66683 2.73134 3.1535 3.21717 2.69516C3.80384 2.11766 4.44551 1.8335 5.12384 1.8335C5.38051 1.8335 5.63717 1.8885 5.86634 1.9985C6.10467 2.1085 6.31551 2.2735 6.48051 2.51183L8.60718 5.50933C8.77218 5.7385 8.89134 5.94933 8.97384 6.151C9.05634 6.3435 9.10218 6.536 9.10218 6.71016C9.10218 6.93016 9.03801 7.15016 8.90968 7.361C8.79051 7.57183 8.61634 7.79183 8.39634 8.01183L7.69967 8.736C7.59884 8.83683 7.55301 8.956 7.55301 9.10266C7.55301 9.176 7.56218 9.24016 7.58051 9.3135C7.60801 9.38683 7.63551 9.44183 7.65384 9.49683C7.81884 9.79933 8.10301 10.1935 8.50634 10.6702C8.91884 11.1468 9.35884 11.6327 9.83551 12.1185C10.3305 12.6043 10.8072 13.0535 11.293 13.466C11.7697 13.8693 12.1638 14.1443 12.4755 14.3093C12.5213 14.3277 12.5763 14.3552 12.6405 14.3827C12.7138 14.4102 12.7872 14.4193 12.8697 14.4193C13.0255 14.4193 13.1447 14.3643 13.2455 14.2635L13.9422 13.576C14.1713 13.3468 14.3913 13.1727 14.6022 13.0627C14.813 12.9343 15.0238 12.8702 15.253 12.8702C15.4272 12.8702 15.6105 12.9068 15.8122 12.9893C16.0138 13.0718 16.2247 13.191 16.4538 13.3468L19.488 15.501C19.7263 15.666 19.8913 15.8585 19.9922 16.0877C20.0838 16.3168 20.1388 16.546 20.1388 16.8027Z" stroke="#2C2321" stroke-width="1.5" stroke-miterlimit="10"/>
</svg>
