<svg width="26" height="26" viewBox="0 0 26 26" fill="none" xmlns="http://www.w3.org/2000/svg">
<path d="M16.1465 6.81978L8.04639 17.4527L3.82573 13.2385C3.75025 13.1629 3.66059 13.1028 3.56188 13.0619C3.46317 13.0209 3.35735 12.9998 3.25048 12.9998C3.1436 12.9998 3.03778 13.0209 2.93907 13.0619C2.84036 13.1028 2.7507 13.1629 2.67523 13.2385C2.59956 13.314 2.53953 13.4037 2.49857 13.5024C2.45761 13.6011 2.43652 13.7069 2.43652 13.8138C2.43652 13.9207 2.45761 14.0265 2.49857 14.1252C2.53953 14.2239 2.59956 14.3136 2.67523 14.389L7.55348 19.2629C7.63544 19.3449 7.73399 19.4084 7.8425 19.4491C7.95102 19.4898 8.06699 19.5068 8.18263 19.499C8.29827 19.4912 8.41091 19.4588 8.51298 19.4039C8.61504 19.349 8.70418 19.2728 8.77439 19.1806L17.4378 7.8067C17.5631 7.63509 17.6162 7.42124 17.5856 7.21097C17.5551 7.0007 17.4435 6.81075 17.2746 6.68182C17.1057 6.5529 16.893 6.49525 16.6822 6.52124C16.4713 6.54723 16.279 6.65371 16.1465 6.81978ZM22.1048 6.82086L14.0047 17.4549L12.9344 16.3856L11.9377 17.691L13.5118 19.264C13.5938 19.3459 13.6925 19.4093 13.801 19.4499C13.9096 19.4906 14.0256 19.5075 14.1412 19.4996C14.2569 19.4917 14.3695 19.4592 14.4715 19.4041C14.5735 19.3491 14.6626 19.2729 14.7327 19.1806L23.3961 7.8067C23.5214 7.63509 23.5745 7.42124 23.544 7.21097C23.5135 7.0007 23.4018 6.81075 23.2329 6.68182C23.064 6.5529 22.8514 6.49525 22.6405 6.52124C22.4296 6.54723 22.2373 6.65479 22.1048 6.82086Z" fill="#2C2321"/>
</svg>
