<svg width="22" height="22" viewBox="0 0 22 22" fill="none" xmlns="http://www.w3.org/2000/svg">
<path d="M13.3191 8.68082L8.68076 13.3192C8.08493 12.7233 7.71826 11.9075 7.71826 11C7.71826 9.18499 9.18493 7.71832 10.9999 7.71832C11.9074 7.71832 12.7233 8.08499 13.3191 8.68082Z" stroke="#0C0507" stroke-width="1.5" stroke-linecap="round" stroke-linejoin="round"/>
<path d="M16.3351 5.28919C14.7309 4.07919 12.8976 3.41919 11.0001 3.41919C7.76427 3.41919 4.74843 5.32586 2.64927 8.62586C1.82427 9.91836 1.82427 12.0909 2.64927 13.3834C3.37343 14.52 4.21677 15.5009 5.13343 16.2892" stroke="#0C0507" stroke-width="1.5" stroke-linecap="round" stroke-linejoin="round"/>
<path d="M7.71826 17.9025C8.76326 18.3425 9.87243 18.5808 10.9999 18.5808C14.2358 18.5808 17.2516 16.6742 19.3508 13.3742C20.1758 12.0817 20.1758 9.90917 19.3508 8.61666C19.0483 8.14 18.7183 7.69083 18.3791 7.26917" stroke="#0C0507" stroke-width="1.5" stroke-linecap="round" stroke-linejoin="round"/>
<path d="M14.2176 11.6417C13.9792 12.9342 12.9251 13.9883 11.6326 14.2267" stroke="#0C0507" stroke-width="1.5" stroke-linecap="round" stroke-linejoin="round"/>
<path d="M8.68075 13.3192L1.83325 20.1667" stroke="#0C0507" stroke-width="1.5" stroke-linecap="round" stroke-linejoin="round"/>
<path d="M20.1666 1.83331L13.3191 8.68081" stroke="#0C0507" stroke-width="1.5" stroke-linecap="round" stroke-linejoin="round"/>
</svg>
