<svg width="22" height="22" viewBox="0 0 22 22" fill="none" xmlns="http://www.w3.org/2000/svg">
<path d="M14.2816 10.9999C14.2816 12.8149 12.8149 14.2816 10.9999 14.2816C9.18493 14.2816 7.71826 12.8149 7.71826 10.9999C7.71826 9.18493 9.18493 7.71826 10.9999 7.71826C12.8149 7.71826 14.2816 9.18493 14.2816 10.9999Z" stroke="#2C2321" stroke-width="1.5" stroke-linecap="round" stroke-linejoin="round"/>
<path d="M11.0001 18.5811C14.2359 18.5811 17.2518 16.6744 19.3509 13.3744C20.1759 12.0819 20.1759 9.90944 19.3509 8.61694C17.2518 5.31694 14.2359 3.41028 11.0001 3.41028C7.76427 3.41028 4.74843 5.31694 2.64927 8.61694C1.82427 9.90944 1.82427 12.0819 2.64927 13.3744C4.74843 16.6744 7.76427 18.5811 11.0001 18.5811Z" stroke="#2C2321" stroke-width="1.5" stroke-linecap="round" stroke-linejoin="round"/>
</svg>
