<svg width="20" height="20" viewBox="0 0 20 20" fill="none" xmlns="http://www.w3.org/2000/svg">
<path opacity="0.4" d="M10 7.59998C10.7583 7.59998 11.375 8.21666 11.375 8.975V11.0333C11.375 11.7916 10.7583 12.4083 10 12.4083C9.24167 12.4083 8.625 11.7916 8.625 11.0333V8.975C8.625 8.21666 9.24167 7.59998 10 7.59998Z" fill="#2C2321" stroke="#2C2321" stroke-width="1.5" stroke-linecap="round"/>
<path opacity="0.4" d="M5.85008 8.77503C6.01675 6.62503 7.81675 4.94167 10.0001 4.94167C12.3001 4.94167 14.1667 6.80834 14.1667 9.10834V10.8917C14.1667 13.1917 12.3001 15.0583 10.0001 15.0583C7.84175 15.0583 6.06675 13.4167 5.85841 11.3167" stroke="#2C2321" stroke-width="1.5" stroke-linecap="round"/>
<path d="M7.5 18.3333H5.83333C3.33333 18.3333 1.66667 16.6666 1.66667 14.1666V12.5" stroke="#2C2321" stroke-width="1.5" stroke-miterlimit="10" stroke-linecap="round" stroke-linejoin="round"/>
<path d="M18.3333 12.5V14.1666C18.3333 16.6666 16.6666 18.3333 14.1666 18.3333H12.4999" stroke="#2C2321" stroke-width="1.5" stroke-miterlimit="10" stroke-linecap="round" stroke-linejoin="round"/>
<path d="M7.5 1.66667H5.83333C3.33333 1.66667 1.66667 3.33333 1.66667 5.83333V7.5" stroke="#2C2321" stroke-width="1.5" stroke-miterlimit="10" stroke-linecap="round" stroke-linejoin="round"/>
<path d="M18.3333 7.5V5.83333C18.3333 3.33333 16.6666 1.66667 14.1666 1.66667H12.4999" stroke="#2C2321" stroke-width="1.5" stroke-miterlimit="10" stroke-linecap="round" stroke-linejoin="round"/>
</svg>
