<svg width="22" height="22" viewBox="0 0 22 22" fill="none" xmlns="http://www.w3.org/2000/svg">
<path d="M5.5 9.16665V7.33331C5.5 4.29915 6.41667 1.83331 11 1.83331C15.5833 1.83331 16.5 4.29915 16.5 7.33331V9.16665" stroke="#2C2321" stroke-width="1.5" stroke-linecap="round" stroke-linejoin="round"/>
<path d="M10.9999 16.9583C12.2656 16.9583 13.2916 15.9323 13.2916 14.6667C13.2916 13.401 12.2656 12.375 10.9999 12.375C9.73427 12.375 8.70825 13.401 8.70825 14.6667C8.70825 15.9323 9.73427 16.9583 10.9999 16.9583Z" stroke="#2C2321" stroke-width="1.5" stroke-linecap="round" stroke-linejoin="round"/>
<path d="M15.5833 20.1667H6.41659C2.74992 20.1667 1.83325 19.25 1.83325 15.5834V13.75C1.83325 10.0834 2.74992 9.16669 6.41659 9.16669H15.5833C19.2499 9.16669 20.1666 10.0834 20.1666 13.75V15.5834C20.1666 19.25 19.2499 20.1667 15.5833 20.1667Z" stroke="#2C2321" stroke-width="1.5" stroke-linecap="round" stroke-linejoin="round"/>
</svg>
