<svg width="150" height="24" viewBox="0 0 150 24" fill="none" xmlns="http://www.w3.org/2000/svg">
<path fill-rule="evenodd" clip-rule="evenodd" d="M5.6887 15.658C7.58069 13.6568 11.0393 13.6568 12.9313 15.658C14.6087 17.4326 14.6087 20.0182 12.9313 21.7928C11.0353 23.7983 7.58509 23.7736 5.69228 21.7964C3.9929 20.0209 4.0148 17.4288 5.6887 15.658ZM8.82445 23.1181C8.90539 23.1258 8.98654 23.1313 9.06775 23.1353C8.90565 23.1274 8.74391 23.1124 8.58329 23.0895L8.82445 23.1181ZM7.87056 22.9356C7.88216 22.939 7.89399 22.9416 7.90562 22.9449C7.81619 22.9195 7.72728 22.8923 7.63942 22.8619L7.87056 22.9356ZM11.6933 16.7178C10.4627 15.416 8.15813 15.4162 6.9274 16.7178C5.8146 17.8951 5.80913 19.5648 6.92382 20.7294C8.16444 22.0252 10.4666 22.0306 11.6933 20.733C12.8023 19.5596 12.8022 17.8913 11.6933 16.7178Z" fill="#FA891A"/>
<path fill-rule="evenodd" clip-rule="evenodd" d="M24.086 15.658C25.9432 13.7006 29.3355 13.7005 31.1926 15.658C32.8404 17.3951 32.8404 19.8346 31.1926 21.5717C29.3314 23.5331 25.9467 23.509 24.0889 21.5753C22.4192 19.8372 22.4416 17.3913 24.086 15.658ZM30.8713 21.6805C30.8851 21.6678 30.8998 21.6561 30.9135 21.6432L30.9393 21.6168C30.9168 21.6383 30.8942 21.6595 30.8713 21.6805ZM31.086 21.4708C31.0712 21.4863 31.0559 21.5013 31.0409 21.5166L31.086 21.4708ZM29.9568 16.7056C28.7607 15.4449 26.518 15.445 25.3218 16.7056C24.2412 17.8448 24.2367 19.3931 25.319 20.5198L25.4349 20.6335C26.6638 21.7738 28.8018 21.7407 29.9568 20.5233C31.0335 19.388 31.0335 17.8409 29.9568 16.7056ZM25.2124 20.6214C25.2164 20.6256 25.2211 20.6293 25.2252 20.6335L25.2124 20.6214ZM31.086 15.7589C31.1072 15.7813 31.1276 15.8043 31.1482 15.8269L31.086 15.7589Z" fill="#FA891A"/>
<path fill-rule="evenodd" clip-rule="evenodd" d="M82.064 4.84245C82.3922 4.84247 82.707 4.89055 83.0079 4.98628V8.61794H86.085C86.1944 8.83679 86.2495 9.11048 86.2495 9.43873C86.2495 9.76682 86.1943 10.04 86.085 10.2588H83.0079V14.5066C83.0079 15.8743 83.213 16.9274 83.6233 17.666C84.0473 18.3908 84.6421 18.7536 85.408 18.7537H85.4159C85.8124 18.7537 86.2158 18.6921 86.626 18.569C87.0363 18.4323 87.5157 18.206 88.0629 17.8914C87.5295 16.9613 87.2621 15.8673 87.2621 14.6089C87.2621 13.7609 87.4199 13.0155 87.7344 12.3727C88.049 11.7161 88.4867 11.2027 89.0475 10.8334C89.6083 10.4506 90.2442 10.2588 90.9553 10.2588C91.5572 10.2588 92.091 10.4031 92.5561 10.6903C93.021 10.9638 93.3833 11.3466 93.6431 11.8388C93.903 12.3313 94.0331 12.8991 94.0331 13.542C94.0331 14.4174 93.7736 15.2179 93.2538 15.9428C92.7477 16.6677 91.8857 17.4541 90.6684 18.3021C91.1061 18.6167 91.6945 18.7737 92.433 18.7737C92.8296 18.7737 93.2265 18.7192 93.6231 18.6098C94.0196 18.5004 94.4024 18.3497 94.7716 18.1583C94.9767 18.3087 95.1274 18.5344 95.2231 18.8352C95.3326 19.1225 95.387 19.4032 95.387 19.6768C94.9357 19.9366 94.4568 20.1418 93.9508 20.2922C93.4448 20.4426 92.9115 20.5176 92.3507 20.5176H92.33C91.6736 20.5176 91.0581 20.4087 90.4837 20.1899C89.9093 19.971 89.4305 19.6698 89.0475 19.2868C87.7344 20.1075 86.4757 20.5176 85.272 20.5176L85.2685 20.5169L85.2649 20.5176C84.3895 20.5176 83.6435 20.2652 83.0279 19.7591C82.4261 19.253 81.9749 18.5415 81.674 17.6252C81.0995 18.6236 80.3952 19.3556 79.5609 19.8206C78.7533 20.2782 77.9257 20.5088 77.0785 20.5162C77.0665 20.5166 77.0542 20.5176 77.042 20.5176L77.0391 20.5169L77.0369 20.5176C77.0353 20.5176 77.0336 20.5169 77.0319 20.5169C75.6971 20.5138 74.8044 19.9128 74.3542 18.7122C73.5745 19.9159 72.3915 20.5176 70.8048 20.5176C69.4508 20.5176 68.4183 20.0734 67.707 19.1845C67.0094 18.2954 66.6601 17.0027 66.6601 15.3066V12.9466C66.2361 13.1791 65.7509 13.3644 65.2038 13.5012C64.7612 13.6147 64.2946 13.6794 63.8048 13.6987C63.9605 14.2151 64.0396 14.7715 64.0396 15.3682C64.0395 16.3528 63.8273 17.2349 63.4034 18.0145C62.993 18.7941 62.4252 19.41 61.7003 19.8614C60.9891 20.299 60.1686 20.5176 59.2386 20.5176C58.3086 20.5176 57.474 20.299 56.7354 19.8614C56.0105 19.41 55.4356 18.7941 55.0116 18.0145C54.6013 17.2349 54.3962 16.3528 54.3962 15.3682C54.3962 14.3834 54.6083 13.5079 55.0323 12.7419C55.4563 11.976 56.0307 11.3742 56.7555 10.9365C57.4941 10.4851 58.3222 10.2588 59.2386 10.2588C60.1549 10.2589 60.9754 10.4851 61.7003 10.9365C62.166 11.2177 62.5658 11.5674 62.9017 11.9841C63.129 12.0102 63.3627 12.0235 63.603 12.0235C64.3005 12.0235 64.964 11.8664 65.5931 11.5519C66.2359 11.2236 66.6808 10.8269 66.927 10.3619C67.2142 10.3345 67.5084 10.3684 67.8093 10.4642C68.1101 10.5599 68.3493 10.7241 68.5271 10.9565V15.2859C68.5271 16.4622 68.7123 17.3242 69.0816 17.8713C69.4646 18.4182 70.073 18.6921 70.9071 18.6921C72.8631 18.6921 73.8411 17.3514 73.8411 14.6705V10.5465C74.1283 10.4507 74.4366 10.4026 74.7649 10.4026C75.1068 10.4027 75.4216 10.4507 75.7088 10.5465V16.4552C75.7088 17.18 75.8178 17.7479 76.0365 18.1583C76.2687 18.5543 76.651 18.7522 77.1829 18.753C77.5243 18.7525 77.9134 18.6506 78.3501 18.446C78.8015 18.2408 79.2392 17.8915 79.6632 17.399C80.0872 16.9066 80.4358 16.2433 80.7094 15.409C80.983 14.5609 81.1201 13.5009 81.1201 12.2288V10.2588H78.8632C78.7675 10.0401 78.7194 9.76675 78.7193 9.43873C78.7193 9.11055 78.7675 8.83676 78.8632 8.61794H81.1201V4.98628C81.38 4.89054 81.6947 4.84245 82.064 4.84245ZM58.0894 12.2496C57.5423 12.4821 57.1116 12.8789 56.797 13.4396C56.4824 13.9867 56.3247 14.6431 56.3247 15.409C56.3247 16.4075 56.5849 17.2143 57.1047 17.8298C57.6381 18.4454 58.3424 18.7537 59.2179 18.7537C60.0932 18.7537 60.7905 18.4453 61.3103 17.8298C61.8437 17.2143 62.111 16.394 62.111 15.3682C62.111 14.8621 62.0353 14.3968 61.8849 13.9728C61.0643 13.9454 60.3188 13.7813 59.6486 13.4804C58.9922 13.1795 58.4723 12.7693 58.0894 12.2496ZM90.8938 11.9619C90.3604 11.962 89.9162 12.2017 89.5606 12.6804C89.2187 13.1591 89.0476 13.7469 89.0475 14.4443C89.0475 15.5249 89.2392 16.3869 89.6222 17.0298C90.5111 16.4143 91.1675 15.8124 91.5915 15.2243C92.0292 14.6362 92.2484 14.0754 92.2484 13.542C92.2484 13.0496 92.1253 12.6663 91.8792 12.3927C91.6466 12.1055 91.3178 11.9619 90.8938 11.9619Z" fill="#FA891A"/>
<path fill-rule="evenodd" clip-rule="evenodd" d="M126.407 0C127.543 0 128.412 0.458285 129.014 1.37466C129.629 2.27744 129.937 3.6047 129.937 5.35553C129.937 9.50004 128.363 13.5696 125.217 17.5636C125.628 18.3706 126.415 18.7737 127.577 18.7737C127.581 18.7737 127.585 18.7744 127.589 18.7744C127.595 18.7743 127.6 18.7737 127.606 18.7737C128.263 18.7737 128.837 18.6166 129.329 18.3021C129.808 17.9739 130.232 17.5636 130.602 17.0713C130.971 16.5652 131.293 16.0589 131.566 15.5528L133.495 11.9619C133.413 11.6611 133.372 11.3398 133.372 10.998C133.372 10.3141 133.495 9.8078 133.741 9.47952C134.001 9.15124 134.213 8.95254 134.377 8.88414C134.61 8.82949 134.856 8.83653 135.116 8.9049C135.389 8.95959 135.635 9.05514 135.854 9.19185C136.073 9.32864 136.224 9.4934 136.306 9.6849C136.265 9.93108 136.168 10.2594 136.018 10.6696C135.867 11.0799 135.662 11.5658 135.403 12.1265C135.498 12.2496 135.608 12.3727 135.731 12.4958C135.868 12.6188 136.025 12.7483 136.203 12.885L137.763 14.1574C138.323 14.6087 138.741 15.0805 139.014 15.5728C139.301 16.0516 139.445 16.5925 139.445 17.1944C139.445 17.7556 139.32 18.2665 139.074 18.7293C139.451 18.6894 139.831 18.623 140.213 18.5275C140.856 18.3634 141.547 18.0692 142.285 17.6452C141.875 16.7425 141.67 15.7304 141.67 14.6089C141.67 13.7745 141.827 13.0356 142.141 12.3927C142.47 11.7362 142.907 11.2164 143.454 10.8334C144.015 10.4505 144.645 10.2588 145.342 10.2588C145.93 10.2588 146.457 10.396 146.922 10.6696C147.387 10.9431 147.756 11.3123 148.03 11.7773C148.304 12.2424 148.441 12.7692 148.441 13.3573C148.441 14.2327 148.132 15.0672 147.517 15.8605C146.901 16.6538 146.005 17.3992 144.829 18.0967C145.363 18.5481 146.101 18.7737 147.045 18.7737C147.442 18.7737 147.839 18.7193 148.235 18.6098C148.632 18.5004 149.015 18.3498 149.385 18.1583C149.59 18.3087 149.74 18.5345 149.835 18.8352C149.945 19.1225 150 19.4032 150 19.6768C149.549 19.9366 149.07 20.1417 148.564 20.2922C148.058 20.4427 147.524 20.5176 146.963 20.5176H146.943C146.177 20.5176 145.472 20.3946 144.829 20.1484C144.186 19.8885 143.66 19.5327 143.25 19.0814C141.506 20.0352 139.822 20.5132 138.201 20.5169C138.198 20.5169 138.196 20.5176 138.193 20.5176L138.189 20.5169C138.187 20.5169 138.184 20.5176 138.182 20.5176C138.177 20.5176 138.171 20.5163 138.166 20.5162C137.957 20.5151 137.754 20.503 137.557 20.4768C137.352 20.4495 137.126 20.4155 136.88 20.3745C136.511 20.4702 136.121 20.5176 135.71 20.5176C135.232 20.5176 134.753 20.4426 134.274 20.2922C133.795 20.1554 133.296 19.9298 132.776 19.6152C132.749 18.8903 133.023 18.3564 133.597 18.0145C134.349 18.5069 135.061 18.7537 135.731 18.7537C136.305 18.7537 136.764 18.603 137.106 18.3021C137.448 17.9875 137.619 17.5908 137.619 17.1121C137.619 16.5103 137.29 15.9494 136.634 15.4297L135.075 14.1982C134.883 14.0478 134.712 13.8977 134.562 13.7473C134.521 13.8157 134.48 13.8908 134.439 13.9728L132.776 16.989C132.421 17.6318 132.003 18.2266 131.525 18.7737C131.046 19.3071 130.472 19.7314 129.802 20.046C129.153 20.3567 128.378 20.5123 127.476 20.5162C127.469 20.5163 127.462 20.5176 127.454 20.5176C127.452 20.5176 127.45 20.5169 127.447 20.5169C127.446 20.5169 127.444 20.5176 127.442 20.5176C127.44 20.5176 127.438 20.5169 127.436 20.5169C125.777 20.513 124.593 19.9805 123.884 18.9175C123.378 19.4099 122.831 19.7996 122.243 20.0868C121.668 20.3741 121.059 20.5176 120.416 20.5176L120.414 20.5169L120.413 20.5176C119.072 20.5176 118.177 19.9159 117.725 18.7122C116.945 19.9158 115.762 20.5176 114.176 20.5176C112.274 20.5176 111.023 19.6627 110.421 17.9529C110.106 18.459 109.764 18.9173 109.395 19.3276C109.039 19.7379 108.691 20.0667 108.349 20.313C108.034 20.2036 107.76 20.0394 107.528 19.8206C107.309 19.5881 107.165 19.3143 107.097 18.9998C107.343 18.7673 107.63 18.4731 107.959 18.1175C108.287 17.7619 108.609 17.3376 108.923 16.8452C109.238 16.3391 109.497 15.7712 109.703 15.142C109.921 14.5129 110.031 13.8085 110.031 13.0289V10.5465C110.154 10.5054 110.298 10.4708 110.462 10.4434C110.626 10.4161 110.797 10.4026 110.975 10.4026C111.289 10.4027 111.597 10.4507 111.898 10.5465V15.2859C111.898 16.4622 112.083 17.3242 112.452 17.8713C112.835 18.4184 113.444 18.6921 114.278 18.6921C116.234 18.6921 117.212 17.3514 117.212 14.6705V10.5465C117.499 10.4508 117.807 10.4027 118.135 10.4026C118.477 10.4026 118.792 10.4508 119.079 10.5465V16.4552C119.079 17.1801 119.189 17.7479 119.407 18.1583C119.639 18.5529 120.019 18.7509 120.548 18.753C120.942 18.7509 121.37 18.6079 121.832 18.3229C122.297 18.022 122.749 17.6111 123.187 17.0913C123.063 16.4074 123.002 15.4839 123.002 14.3213V4.67858C123.002 3.17395 123.296 2.01782 123.884 1.21079C124.472 0.403913 125.313 6.12555e-05 126.407 0ZM145.342 11.9619C144.795 11.962 144.337 12.2081 143.968 12.7004C143.612 13.1792 143.434 13.7951 143.434 14.5474C143.434 15.4501 143.598 16.175 143.927 16.7221C145.746 15.6689 146.655 14.5473 146.655 13.3573C146.655 12.9196 146.539 12.5774 146.307 12.3312C146.074 12.085 145.753 11.9619 145.342 11.9619ZM126.428 1.76466C125.922 1.76467 125.525 1.98388 125.238 2.42158C124.965 2.85928 124.828 3.48165 124.828 4.28858V14.2397C124.828 14.6363 124.834 14.9716 124.848 15.2451C125.614 14.0277 126.236 12.8716 126.715 11.7773C127.194 10.683 127.543 9.60256 127.762 8.53565C127.995 7.46874 128.111 6.38118 128.111 5.27324C128.111 2.93428 127.55 1.76466 126.428 1.76466Z" fill="#FA891A"/>
<path fill-rule="evenodd" clip-rule="evenodd" d="M47.4091 5.41707C48.3255 5.41707 49.1741 5.56062 49.9537 5.84786C50.7469 6.12142 51.3828 6.57272 51.8615 7.20177C52.3539 7.83098 52.6 8.65902 52.6 9.6849C52.6 10.4781 52.443 11.1621 52.1284 11.7365C51.8138 12.2973 51.41 12.7619 50.9176 13.1312C50.4252 13.4869 49.8984 13.7676 49.3376 13.9728L53.0108 19.1229C52.9013 19.4101 52.7026 19.6697 52.4154 19.9022C52.1419 20.1347 51.8412 20.2853 51.513 20.3537L47.286 14.4243C47.1356 14.438 46.9919 14.4443 46.8552 14.4443H44.4136V20.2307C44.0854 20.3264 43.7641 20.3745 43.4497 20.3745C43.1078 20.3745 42.793 20.3264 42.5058 20.2307V5.41707H47.4091ZM44.4136 12.6804H46.8552C47.2792 12.6804 47.7106 12.6394 48.1483 12.5573C48.5995 12.4616 49.0099 12.3109 49.3791 12.1058C49.7484 11.8869 50.0489 11.5857 50.2815 11.2027C50.5139 10.8198 50.6306 10.3345 50.6307 9.74644C50.6307 8.91213 50.3435 8.27565 49.7691 7.83794C49.1947 7.40027 48.4626 7.18177 47.5736 7.18174H44.4136V12.6804Z" fill="#FA891A"/>
<path fill-rule="evenodd" clip-rule="evenodd" d="M102.063 5.41707C103.814 5.41708 105.147 5.80671 106.064 6.58636C106.994 7.36603 107.459 8.45357 107.459 9.84877C107.459 11.367 106.953 12.5501 105.941 13.3981C104.942 14.2462 103.588 14.6704 101.878 14.6705H99.3543V20.2307C99.0262 20.3264 98.7049 20.3745 98.3904 20.3745C98.0485 20.3745 97.7337 20.3264 97.4465 20.2307V5.41707H102.063ZM99.3543 12.9266H101.694C102.938 12.9265 103.882 12.6734 104.525 12.1673C105.168 11.6612 105.489 10.9087 105.489 9.91031C105.489 8.0911 104.347 7.18176 102.063 7.18174H99.3543V12.9266Z" fill="#FA891A"/>
<path fill-rule="evenodd" clip-rule="evenodd" d="M20.8307 1.01186C21.4769 1.012 22.07 1.36666 22.3428 1.92782L26.8117 11.1204C27.1084 11.7312 26.9605 12.4504 26.4496 12.9122L21.6601 17.2402C21.3498 17.5206 20.9373 17.6759 20.5102 17.676H16.5386C15.9017 17.676 15.316 17.3318 15.038 16.7829L13.4644 13.6736H4.7391L2.61736 17.7769C2.41369 18.1708 1.91509 18.3262 1.50747 18.1404C1.09712 17.953 0.915273 17.4811 1.12104 17.0827L2.88499 13.6701C2.41519 13.6526 1.97155 13.4501 1.66847 13.104L0.386839 11.6399C-0.522664 10.6011 0.279929 9.06591 1.66847 9.06591H10.9576L10.9398 2.84951H3.07391L3.11327 7.27977C3.117 7.72396 2.73761 8.07112 2.28747 8.0748C1.83727 8.07813 1.45272 7.73687 1.44879 7.29265L1.40943 2.85309C1.40176 1.98078 2.14256 1.28096 3.04815 1.26804H10.9176C11.8342 1.25628 12.6015 1.95184 12.6042 2.8352L12.6221 9.07163C12.6245 9.95445 11.8238 10.6471 10.9176 10.6474H1.6835L2.94868 12.0922H17.871C18.3226 12.0924 18.7054 12.4373 18.7054 12.8829C18.7054 13.3284 18.3226 13.6734 17.871 13.6736H15.3106L16.5364 16.0938L16.5386 16.0945H20.5102C20.5118 16.0944 20.513 16.0938 20.513 16.0938L25.2946 11.7723L20.8322 2.59333H15.886C15.4342 2.59327 15.0509 2.24829 15.0509 1.80259C15.051 1.357 15.4343 1.01191 15.886 1.01186H20.8307ZM2.4864 17.7096C2.46635 17.7484 2.44299 17.7846 2.41627 17.8177C2.42924 17.8016 2.44202 17.785 2.45349 17.7676L2.4864 17.7096ZM21.5614 17.1314C21.4918 17.1943 21.4165 17.2501 21.3367 17.2989C21.376 17.2749 21.4149 17.2498 21.4519 17.2223L21.5614 17.1314ZM1.87814 13.1105C1.88123 13.1134 1.88505 13.1155 1.88816 13.1183C1.85001 13.0831 1.81301 13.0466 1.77868 13.0074L1.87814 13.1105ZM18.5587 12.8829C18.5587 12.9099 18.5557 12.9362 18.5523 12.9623C18.5529 12.9577 18.5554 12.9534 18.5559 12.9487L18.5587 12.8829ZM17.8703 12.2389C17.9165 12.2389 17.9619 12.2429 18.0056 12.251C17.9844 12.2471 17.963 12.2438 17.9412 12.2417L17.8703 12.2389ZM2.83776 12.1888C2.86537 12.2203 2.90666 12.2388 2.95011 12.2389L2.91862 12.2353C2.90807 12.2331 2.89752 12.2297 2.88785 12.2253C2.87841 12.2211 2.86969 12.2156 2.86138 12.2095L2.83776 12.1888ZM11.2167 10.4728C11.1194 10.4908 11.0194 10.5006 10.9176 10.5007L11.0736 10.4935C11.1219 10.4889 11.1696 10.4815 11.2167 10.4728ZM1.39011 9.2355C1.40482 9.23304 1.41957 9.23042 1.43447 9.22835L1.43805 9.22763C1.42193 9.22984 1.406 9.23284 1.39011 9.2355ZM2.92721 2.84092C2.92713 2.83166 2.92846 2.82254 2.93007 2.81373L2.92721 2.84092ZM11.0857 2.83949L11.0829 2.81158C11.0816 2.80579 11.0785 2.80062 11.0764 2.79512C11.0816 2.80911 11.0857 2.82382 11.0857 2.83949ZM20.8715 2.45307C20.8981 2.46038 20.922 2.47435 20.9402 2.49386L20.9095 2.46881C20.8978 2.46176 20.8849 2.45678 20.8715 2.45307ZM22.0423 1.72602C22.1076 1.80747 22.1641 1.8963 22.2104 1.99151C22.1796 1.92805 22.1448 1.86723 22.1052 1.80975C22.0855 1.78105 22.064 1.75312 22.0423 1.72602ZM11.0736 1.41975C11.022 1.41551 10.9705 1.414 10.9176 1.41474L11.0736 1.41975Z" fill="#FA891A"/>
<path fill-rule="evenodd" clip-rule="evenodd" d="M9.24379 3.74973C9.75518 3.73834 10.2534 4.11727 10.2692 4.63636C10.285 5.1579 9.80633 5.56127 9.29388 5.57522H4.75127C4.24672 5.5869 3.81016 5.224 3.76875 4.73654L3.76804 4.73225L3.76589 4.69289V4.64137C3.77753 4.15065 4.19403 3.7634 4.70046 3.74973H9.24379ZM10.1225 4.64065C10.1249 4.71836 10.1126 4.79335 10.0896 4.86463C10.1048 4.81767 10.1166 4.76938 10.1211 4.71937L10.1225 4.64065ZM9.35328 3.90144C9.34469 3.9006 9.33615 3.89916 9.32752 3.89858L9.24379 3.89643C9.28061 3.89547 9.31711 3.89792 9.35328 3.90144Z" fill="#FA891A"/>
</svg>
