<svg width="28" height="28" viewBox="0 0 28 28" fill="none" xmlns="http://www.w3.org/2000/svg">
<path d="M17.8504 16.7999C17.8504 17.1712 17.7029 17.5273 17.4403 17.7899C17.1778 18.0524 16.8217 18.1999 16.4504 18.1999C16.0791 18.1999 15.723 18.0524 15.4604 17.7899C15.1979 17.5273 15.0504 17.1712 15.0504 16.7999C15.0504 16.4286 15.1979 16.0725 15.4604 15.81C15.723 15.5474 16.0791 15.3999 16.4504 15.3999C16.8217 15.3999 17.1778 15.5474 17.4403 15.81C17.7029 16.0725 17.8504 16.4286 17.8504 16.7999ZM12.9504 16.7999C12.9504 17.1712 12.8029 17.5273 12.5403 17.7899C12.2778 18.0524 11.9217 18.1999 11.5504 18.1999C11.1791 18.1999 10.823 18.0524 10.5604 17.7899C10.2979 17.5273 10.1504 17.1712 10.1504 16.7999C10.1504 16.4286 10.2979 16.0725 10.5604 15.81C10.823 15.5474 11.1791 15.3999 11.5504 15.3999C11.9217 15.3999 12.2778 15.5474 12.5403 15.81C12.8029 16.0725 12.9504 16.4286 12.9504 16.7999Z" fill="#FA891A"/>
<path fill-rule="evenodd" clip-rule="evenodd" d="M13.9998 9.7999C14.5514 9.7999 15.0975 9.69127 15.6071 9.4802C16.1166 9.26913 16.5796 8.95976 16.9697 8.56975C17.3597 8.17975 17.669 7.71674 17.8801 7.20717C18.0912 6.69761 18.1998 6.15145 18.1998 5.5999C18.1998 5.04835 18.0912 4.5022 17.8801 3.99263C17.669 3.48306 17.3597 3.02006 16.9697 2.63005C16.5796 2.24005 16.1166 1.93068 15.6071 1.71961C15.0975 1.50854 14.5514 1.3999 13.9998 1.3999C12.8859 1.3999 11.8176 1.8424 11.03 2.63005C10.2423 3.41771 9.7998 4.48599 9.7998 5.5999C9.7998 6.71381 10.2423 7.7821 11.03 8.56975C11.8176 9.3574 12.8859 9.7999 13.9998 9.7999ZM13.9998 2.7999C14.7424 2.7999 15.4546 3.0949 15.9797 3.62C16.5048 4.14511 16.7998 4.8573 16.7998 5.5999C16.7998 6.34251 16.5048 7.0547 15.9797 7.5798C15.4546 8.1049 14.7424 8.3999 13.9998 8.3999C13.2572 8.3999 12.545 8.1049 12.0199 7.5798C11.4948 7.0547 11.1998 6.34251 11.1998 5.5999C11.1998 4.8573 11.4948 4.14511 12.0199 3.62C12.545 3.0949 13.2572 2.7999 13.9998 2.7999ZM14.6998 19.5999H13.2998C12.7429 19.5999 12.2087 19.8212 11.8149 20.215C11.4211 20.6088 11.1998 21.1429 11.1998 21.6999V24.4999C11.1998 25.0569 11.4211 25.591 11.8149 25.9848C12.2087 26.3787 12.7429 26.5999 13.2998 26.5999H14.6998C15.2568 26.5999 15.7909 26.3787 16.1847 25.9848C16.5786 25.591 16.7998 25.0569 16.7998 24.4999V21.6999C16.7998 21.1429 16.5786 20.6088 16.1847 20.215C15.7909 19.8212 15.2568 19.5999 14.6998 19.5999ZM12.5998 21.6999C12.5998 21.5143 12.6736 21.3362 12.8048 21.2049C12.9361 21.0737 13.1142 20.9999 13.2998 20.9999H14.6998C14.8855 20.9999 15.0635 21.0737 15.1948 21.2049C15.3261 21.3362 15.3998 21.5143 15.3998 21.6999V24.4999C15.3998 24.6856 15.3261 24.8636 15.1948 24.9949C15.0635 25.1262 14.8855 25.1999 14.6998 25.1999H13.2998C13.1142 25.1999 12.9361 25.1262 12.8048 24.9949C12.6736 24.8636 12.5998 24.6856 12.5998 24.4999V21.6999Z" fill="#FA891A"/>
<path d="M21.7002 5.2499C21.4217 5.2499 21.1546 5.13928 20.9577 4.94236C20.7608 4.74545 20.6502 4.47838 20.6502 4.1999C20.6502 3.92143 20.7608 3.65435 20.9577 3.45744C21.1546 3.26053 21.4217 3.1499 21.7002 3.1499H24.5002C24.7787 3.1499 25.0457 3.26053 25.2427 3.45744C25.4396 3.65435 25.5502 3.92143 25.5502 4.1999C25.5502 4.47838 25.4396 4.74545 25.2427 4.94236C25.0457 5.13928 24.7787 5.2499 24.5002 5.2499H21.7002ZM3.5002 5.2499C3.22172 5.2499 2.95465 5.13928 2.75773 4.94236C2.56082 4.74545 2.4502 4.47838 2.4502 4.1999C2.4502 3.92143 2.56082 3.65435 2.75773 3.45744C2.95465 3.26053 3.22172 3.1499 3.5002 3.1499H6.3002C6.57867 3.1499 6.84574 3.26053 7.04266 3.45744C7.23957 3.65435 7.3502 3.92143 7.3502 4.1999C7.3502 4.47838 7.23957 4.74545 7.04266 4.94236C6.84574 5.13928 6.57867 5.2499 6.3002 5.2499H3.5002Z" fill="#FA891A"/>
<path d="M5.74902 4.70956L6.17182 3.35156L11.349 4.39036L10.9262 5.74836L5.74902 4.70956ZM16.6522 4.39036L17.075 5.74836L22.2522 4.70956L21.8294 3.35156L16.6522 4.39036Z" fill="#FA891A"/>
<path fill-rule="evenodd" clip-rule="evenodd" d="M20.3002 14.6999C20.3002 13.8726 20.1372 13.0533 19.8206 12.289C19.504 11.5246 19.04 10.8301 18.455 10.2451C17.87 9.66012 17.1755 9.19607 16.4111 8.87946C15.6468 8.56286 14.8275 8.3999 14.0002 8.3999C13.1729 8.3999 12.3536 8.56286 11.5893 8.87946C10.8249 9.19607 10.1304 9.66012 9.54542 10.2451C8.96041 10.8301 8.49636 11.5246 8.17975 12.289C7.86315 13.0533 7.7002 13.8726 7.7002 14.6999V18.1999C7.7002 18.9425 7.99519 19.6547 8.5203 20.1798C9.0454 20.7049 9.75759 20.9999 10.5002 20.9999H17.5002C18.2428 20.9999 18.955 20.7049 19.4801 20.1798C20.0052 19.6547 20.3002 18.9425 20.3002 18.1999V14.6999ZM9.1002 14.6999C9.1002 14.0564 9.22694 13.4192 9.47319 12.8248C9.71943 12.2303 10.0804 11.6901 10.5354 11.2351C10.9904 10.7801 11.5306 10.4191 12.125 10.1729C12.7195 9.92664 13.3567 9.7999 14.0002 9.7999C14.6437 9.7999 15.2808 9.92664 15.8753 10.1729C16.4698 10.4191 17.01 10.7801 17.465 11.2351C17.92 11.6901 18.281 12.2303 18.5272 12.8248C18.7735 13.4192 18.9002 14.0564 18.9002 14.6999V18.1999C18.9002 18.5712 18.7527 18.9273 18.4901 19.1899C18.2276 19.4524 17.8715 19.5999 17.5002 19.5999H10.5002C10.1289 19.5999 9.7728 19.4524 9.51025 19.1899C9.2477 18.9273 9.1002 18.5712 9.1002 18.1999V14.6999Z" fill="#FA891A"/>
</svg>
