<svg width="26" height="26" viewBox="0 0 26 26" fill="none" xmlns="http://www.w3.org/2000/svg">
<path d="M22.62 6.89735L13.6825 2.00407C13.4735 1.88866 13.2387 1.82813 13 1.82812C12.7613 1.82813 12.5265 1.88866 12.3175 2.00407L3.38 6.89735C3.15636 7.01971 2.96974 7.19995 2.83966 7.41918C2.70958 7.63842 2.64084 7.8886 2.64062 8.14352V17.857C2.64084 18.1119 2.70958 18.3621 2.83966 18.5813C2.96974 18.8005 3.15636 18.9808 3.38 19.1031L12.3175 23.9964C12.5265 24.1116 12.7613 24.1721 13 24.1721C13.2387 24.1721 13.4735 24.1116 13.6825 23.9964L22.62 19.1031C22.8436 18.9808 23.0303 18.8005 23.1603 18.5813C23.2904 18.3621 23.3592 18.1119 23.3594 17.857V8.14352C23.3592 7.8886 23.2904 7.63842 23.1603 7.41918C23.0303 7.19995 22.8436 7.01971 22.62 6.89735ZM12.8984 3.0725C12.9283 3.05615 12.9619 3.04757 12.9959 3.04757C13.03 3.04757 13.0635 3.05615 13.0934 3.0725L21.583 7.71899L18.136 9.60501L9.55195 4.90672L12.8984 3.0725ZM12.3906 22.6487L3.96094 18.0347C3.92979 18.0167 3.90397 17.9908 3.88613 17.9596C3.86829 17.9283 3.85905 17.8929 3.85938 17.857V8.80165L12.3906 13.4735V22.6487ZM4.41695 7.71899L8.28344 5.60141L16.8665 10.2997L13 12.4152L4.41695 7.71899ZM22.1406 17.857C22.1409 17.8929 22.1317 17.9283 22.1139 17.9596C22.096 17.9908 22.0702 18.0167 22.0391 18.0347L13.6094 22.6487V13.4715L17.2656 11.4697V15.4377C17.2656 15.5994 17.3298 15.7544 17.4441 15.8686C17.5584 15.9829 17.7134 16.0471 17.875 16.0471C18.0366 16.0471 18.1916 15.9829 18.3059 15.8686C18.4202 15.7544 18.4844 15.5994 18.4844 15.4377V10.8034L22.1406 8.80165V17.857Z" fill="#2C2321"/>
</svg>
