<svg width="40" height="40" viewBox="0 0 40 40" fill="none" xmlns="http://www.w3.org/2000/svg">
<path d="M32.2165 9.46663L21.7665 3.8333C20.6665 3.2333 19.3331 3.2333 18.2331 3.8333L7.78314 9.46663C7.01647 9.8833 6.5498 10.6833 6.5498 11.6C6.5498 12.5 7.01647 13.3166 7.78314 13.7333L18.2331 19.3666C18.7831 19.6666 19.3998 19.8166 19.9998 19.8166C20.5998 19.8166 21.2165 19.6666 21.7665 19.3666L32.2165 13.7333C32.9831 13.3166 33.4498 12.5166 33.4498 11.6C33.4498 10.6833 32.9831 9.8833 32.2165 9.46663Z" fill="#FA891A"/>
<path opacity="0.4" d="M16.5163 21.3165L6.78301 16.4498C6.03301 16.0832 5.16634 16.1165 4.46634 16.5498C3.74967 16.9998 3.33301 17.7498 3.33301 18.5832V27.7665C3.33301 29.3498 4.21634 30.7832 5.63301 31.4998L15.3497 36.3665C15.683 36.5332 16.0497 36.6165 16.4163 36.6165C16.8497 36.6165 17.283 36.4998 17.6663 36.2665C18.383 35.8332 18.7997 35.0665 18.7997 34.2332V25.0498C18.8163 23.4498 17.933 22.0165 16.5163 21.3165Z" fill="#FA891A"/>
<path opacity="0.4" d="M35.5335 16.5502C34.8169 16.1169 33.9502 16.0669 33.2169 16.4502L23.5002 21.3169C22.0835 22.0336 21.2002 23.4502 21.2002 25.0502V34.2336C21.2002 35.0669 21.6169 35.8336 22.3335 36.2669C22.7169 36.5002 23.1502 36.6169 23.5835 36.6169C23.9502 36.6169 24.3169 36.5336 24.6502 36.3669L34.3669 31.5002C35.7835 30.7836 36.6669 29.3669 36.6669 27.7669V18.5836C36.6669 17.7502 36.2502 17.0002 35.5335 16.5502Z" fill="#FA891A"/>
</svg>
