<svg width="22" height="22" viewBox="0 0 22 22" fill="none" xmlns="http://www.w3.org/2000/svg">
<path d="M11.1468 9.96418C11.0552 9.95501 10.9452 9.95501 10.8443 9.96418C8.66268 9.89084 6.93018 8.10334 6.93018 5.90334C6.93018 3.65751 8.74518 1.83334 11.0002 1.83334C13.246 1.83334 15.0702 3.65751 15.0702 5.90334C15.061 8.10334 13.3285 9.89084 11.1468 9.96418Z" stroke="#2C2321" stroke-width="1.5" stroke-linecap="round" stroke-linejoin="round"/>
<path d="M6.56316 13.3467C4.34483 14.8317 4.34483 17.2517 6.56316 18.7275C9.084 20.4142 13.2182 20.4142 15.739 18.7275C17.9573 17.2425 17.9573 14.8225 15.739 13.3467C13.2273 11.6692 9.09316 11.6692 6.56316 13.3467Z" stroke="#2C2321" stroke-width="1.5" stroke-linecap="round" stroke-linejoin="round"/>
</svg>
