<svg width="166" height="26" viewBox="0 0 166 26" fill="none" xmlns="http://www.w3.org/2000/svg">
<mask id="path-1-outside-1_551_1128" maskUnits="userSpaceOnUse" x="-0.797485" y="-0.799988" width="167" height="27" fill="black">
<rect fill="white" x="-0.797485" y="-0.799988" width="167" height="27"/>
<path fill-rule="evenodd" clip-rule="evenodd" d="M6.56015 16.8037C8.62514 14.5972 12.4094 14.5973 14.4744 16.8037C16.3032 18.7577 16.3032 21.5975 14.4744 23.5515C12.4057 25.7619 8.63025 25.736 6.56335 23.5549C4.71181 21.601 4.73469 18.7542 6.56015 16.8037ZM13.3199 17.7798C11.8692 16.2298 9.16549 16.2298 7.7148 17.7798C6.4023 19.1822 6.3946 21.1822 7.7116 22.572C9.17258 24.1137 11.8729 24.1215 13.3199 22.5754C14.6291 21.1765 14.6291 19.1787 13.3199 17.7798Z"/>
<path fill-rule="evenodd" clip-rule="evenodd" d="M27.2721 16.8037C29.298 14.6467 33.0086 14.6467 35.0345 16.8037C36.8296 18.715 36.8296 21.3881 35.0345 23.2994C33.0049 25.4603 29.303 25.4349 27.2753 23.3028C25.4577 21.3916 25.4803 18.7115 27.2721 16.8037ZM33.8818 17.766C32.47 16.2629 29.8366 16.2629 28.4248 17.766C27.1484 19.1251 27.1411 20.9871 28.4216 22.3337C29.8436 23.8289 32.4737 23.8363 33.8818 22.3371C35.155 20.9815 35.155 19.1216 33.8818 17.766Z"/>
<path d="M23.488 0.200012C24.1567 0.200031 24.7638 0.570281 25.0416 1.14746L30.0729 11.6015C30.3742 12.2276 30.226 12.966 29.7033 13.4431L24.3109 18.3651C23.9927 18.6555 23.5684 18.8177 23.1269 18.8177H18.6554C17.9964 18.8177 17.3961 18.4579 17.1131 17.8931L15.2952 14.266H5.26984L2.83542 19.0224C2.64915 19.3863 2.18565 19.538 1.80127 19.3608C1.41849 19.1844 1.25887 18.7484 1.44436 18.386L3.55312 14.266H3.35719C2.8465 14.266 2.36258 14.0492 2.03814 13.6749L0.594686 12.0096C-0.322003 10.952 0.470742 9.35905 1.91373 9.35905H12.373C12.4636 9.35905 12.537 9.28914 12.5368 9.20314L12.5166 2.1115C12.5163 2.02491 12.4415 1.95526 12.3502 1.95658L3.49268 1.95647C3.40271 1.95778 3.33065 2.02774 3.33137 2.11313L3.37539 7.16239C3.3789 7.56551 3.03613 7.89499 2.60976 7.89835C2.18334 7.9017 1.8348 7.57758 1.83128 7.17443L1.78727 2.12527C1.77951 1.2345 2.5307 0.504745 3.46926 0.491219H12.3268C13.2783 0.477507 14.0581 1.20443 14.0607 2.10749L14.081 9.19913C14.0836 10.096 13.2719 10.8244 12.3268 10.8244H1.91373C1.77536 10.8244 1.69936 10.9772 1.78727 11.0786L3.23072 12.7439C3.26183 12.7798 3.30823 12.8006 3.35719 12.8006H20.1554C20.5834 12.8006 20.9304 13.1287 20.9304 13.5333C20.9304 13.9379 20.5834 14.266 20.1554 14.266H17.0052L18.5075 17.2637C18.5346 17.3178 18.5922 17.3524 18.6554 17.3524H23.1269C23.1692 17.3524 23.21 17.3368 23.2405 17.3089L28.6328 12.387C28.683 12.3413 28.6971 12.2704 28.6683 12.2104L23.637 1.75622C23.6104 1.7009 23.5521 1.66539 23.488 1.66537H17.9208C17.4928 1.66537 17.1459 1.33734 17.1459 0.932691C17.1459 0.528044 17.4928 0.200012 17.9208 0.200012H23.488Z"/>
<path d="M10.4422 3.31378C10.9491 3.30003 11.418 3.67885 11.4325 4.15997C11.447 4.64109 11.0016 5.04222 10.4946 5.05598H5.38442C4.8933 5.0693 4.48123 4.71423 4.44276 4.25463L4.44026 4.20979L4.44005 4.16489C4.45079 3.70396 4.84081 3.32711 5.33192 3.31378L10.4422 3.31378Z"/>
<path d="M49.7234 21.1868H47.2337V5.82283H53.2994C57.0338 5.82283 59.2745 7.55609 59.2745 10.616C59.2745 12.8201 57.8033 14.5105 55.3363 15.0669L59.7498 21.1868H56.7622L52.7109 15.4093H49.7234V21.1868ZM49.7234 7.79147V13.4406H53.1409C55.4495 13.4406 56.7622 12.4777 56.7622 10.616C56.7622 8.77579 55.4495 7.79147 53.1409 7.79147H49.7234Z"/>
<path d="M66.4217 21.4008C63.0268 21.4008 60.5371 18.8758 60.5371 15.5163C60.5371 12.1567 63.0268 9.63173 66.4217 9.63173C69.8166 9.63173 72.3063 12.1567 72.3063 15.5163C72.3063 18.8758 69.8166 21.4008 66.4217 21.4008ZM66.4217 19.4963C68.3908 19.4963 69.9524 17.9985 69.9524 15.5163C69.9524 13.0341 68.3908 11.5576 66.4217 11.5576C64.4526 11.5576 62.9136 13.0341 62.9136 15.5163C62.9136 17.9985 64.4526 19.4963 66.4217 19.4963Z"/>
<path d="M82.1281 16.522V9.84571H84.414V21.1868H82.2865V19.3893C81.6528 20.5663 80.2495 21.4008 78.62 21.4008C76.1982 21.4008 74.5234 20.0527 74.5234 17.1425V9.84571H76.8093V16.7146C76.8093 18.6832 77.8504 19.4963 79.3442 19.4963C80.8833 19.4963 82.1281 18.298 82.1281 16.522Z"/>
<path d="M94.3559 19.0898V20.9942C93.6542 21.2938 93.0432 21.4008 92.3189 21.4008C90.1009 21.4008 88.5618 20.2667 88.5618 17.7631V11.686H85.9138V9.84571H88.5618V6.48617H90.8478V9.84571H94.469V11.686H90.8478V17.2709C90.8478 18.833 91.6399 19.3893 92.8621 19.3893C93.4053 19.3893 93.8806 19.3038 94.3559 19.0898Z"/>
<path d="M101.253 21.4008C97.7902 21.4008 95.459 19.0256 95.459 15.4521C95.459 12.0925 97.8808 9.63173 101.185 9.63173C104.761 9.63173 107.138 12.3707 106.73 16.0512H97.7902C97.9713 18.3622 99.1935 19.7103 101.208 19.7103C102.905 19.7103 104.082 18.833 104.467 17.3565H106.73C106.142 19.8815 104.082 21.4008 101.253 21.4008ZM101.14 11.258C99.3066 11.258 98.0618 12.4991 97.8129 14.6175H104.309C104.195 12.5205 102.996 11.258 101.14 11.258Z"/>
<path d="M116.004 16.3422H112.858V21.9411H110.368V5.86097H116.004C119.648 5.86097 122.002 7.84703 122.002 11.0568C122.002 14.2879 119.648 16.3422 116.004 16.3422ZM115.981 7.94377H112.858V14.2594H115.981C118.177 14.2594 119.512 12.9836 119.512 11.0792C119.512 9.17472 118.177 7.94377 115.981 7.94377Z"/>
<path d="M131.802 17.0588V10.0714H134.088V21.9411H131.961V20.0599C131.327 21.2368 129.924 22.1651 128.294 22.1651C125.873 22.1651 124.198 20.6185 124.198 17.7083V10.0714H126.484V17.2604C126.484 19.229 127.525 20.1718 129.019 20.1718C130.558 20.1718 131.802 18.8349 131.802 17.0588Z"/>
<path d="M139.572 21.9411H137.263V5.86097H139.572V21.9411Z"/>
<path d="M152.25 18.4026C152.25 20.628 150.417 22.1651 147.226 22.1651C144.057 22.1651 142.179 20.5061 141.952 18.0666H144.148C144.238 19.4789 145.438 20.463 147.271 20.463C148.878 20.463 149.942 19.8532 149.942 18.7833C149.942 17.8418 149.331 17.3594 147.837 17.0812L145.89 16.7229C143.672 16.3163 142.427 15.0978 142.427 13.3859C142.427 11.3959 144.261 9.84741 147.045 9.84741C149.919 9.84741 151.865 11.479 152.069 13.8115H149.874C149.738 12.442 148.674 11.5495 147.067 11.5495C145.619 11.5495 144.646 12.2001 144.646 13.1844C144.646 14.1045 145.257 14.6073 146.705 14.8641L148.742 15.2448C151.119 15.6514 152.25 16.7763 152.25 18.4026Z"/>
<path d="M159.68 22.1651C156.217 22.1651 153.886 19.5126 153.886 15.9391C153.886 12.5795 156.308 9.84741 159.612 9.84741C163.188 9.84741 165.565 12.8856 165.157 16.5661H156.217C156.398 18.8771 157.62 20.3958 159.635 20.3958C161.332 20.3958 162.509 19.4088 162.894 17.9323H165.157C164.569 20.4573 162.509 22.1651 159.68 22.1651ZM159.567 11.5495C157.734 11.5495 156.489 12.9472 156.24 15.0656H162.735C162.622 12.9686 161.423 11.5495 159.567 11.5495Z"/>
</mask>
<path fill-rule="evenodd" clip-rule="evenodd" d="M6.56015 16.8037C8.62514 14.5972 12.4094 14.5973 14.4744 16.8037C16.3032 18.7577 16.3032 21.5975 14.4744 23.5515C12.4057 25.7619 8.63025 25.736 6.56335 23.5549C4.71181 21.601 4.73469 18.7542 6.56015 16.8037ZM13.3199 17.7798C11.8692 16.2298 9.16549 16.2298 7.7148 17.7798C6.4023 19.1822 6.3946 21.1822 7.7116 22.572C9.17258 24.1137 11.8729 24.1215 13.3199 22.5754C14.6291 21.1765 14.6291 19.1787 13.3199 17.7798Z" fill="#FA891A"/>
<path fill-rule="evenodd" clip-rule="evenodd" d="M27.2721 16.8037C29.298 14.6467 33.0086 14.6467 35.0345 16.8037C36.8296 18.715 36.8296 21.3881 35.0345 23.2994C33.0049 25.4603 29.303 25.4349 27.2753 23.3028C25.4577 21.3916 25.4803 18.7115 27.2721 16.8037ZM33.8818 17.766C32.47 16.2629 29.8366 16.2629 28.4248 17.766C27.1484 19.1251 27.1411 20.9871 28.4216 22.3337C29.8436 23.8289 32.4737 23.8363 33.8818 22.3371C35.155 20.9815 35.155 19.1216 33.8818 17.766Z" fill="#FA891A"/>
<path d="M23.488 0.200012C24.1567 0.200031 24.7638 0.570281 25.0416 1.14746L30.0729 11.6015C30.3742 12.2276 30.226 12.966 29.7033 13.4431L24.3109 18.3651C23.9927 18.6555 23.5684 18.8177 23.1269 18.8177H18.6554C17.9964 18.8177 17.3961 18.4579 17.1131 17.8931L15.2952 14.266H5.26984L2.83542 19.0224C2.64915 19.3863 2.18565 19.538 1.80127 19.3608C1.41849 19.1844 1.25887 18.7484 1.44436 18.386L3.55312 14.266H3.35719C2.8465 14.266 2.36258 14.0492 2.03814 13.6749L0.594686 12.0096C-0.322003 10.952 0.470742 9.35905 1.91373 9.35905H12.373C12.4636 9.35905 12.537 9.28914 12.5368 9.20314L12.5166 2.1115C12.5163 2.02491 12.4415 1.95526 12.3502 1.95658L3.49268 1.95647C3.40271 1.95778 3.33065 2.02774 3.33137 2.11313L3.37539 7.16239C3.3789 7.56551 3.03613 7.89499 2.60976 7.89835C2.18334 7.9017 1.8348 7.57758 1.83128 7.17443L1.78727 2.12527C1.77951 1.2345 2.5307 0.504745 3.46926 0.491219H12.3268C13.2783 0.477507 14.0581 1.20443 14.0607 2.10749L14.081 9.19913C14.0836 10.096 13.2719 10.8244 12.3268 10.8244H1.91373C1.77536 10.8244 1.69936 10.9772 1.78727 11.0786L3.23072 12.7439C3.26183 12.7798 3.30823 12.8006 3.35719 12.8006H20.1554C20.5834 12.8006 20.9304 13.1287 20.9304 13.5333C20.9304 13.9379 20.5834 14.266 20.1554 14.266H17.0052L18.5075 17.2637C18.5346 17.3178 18.5922 17.3524 18.6554 17.3524H23.1269C23.1692 17.3524 23.21 17.3368 23.2405 17.3089L28.6328 12.387C28.683 12.3413 28.6971 12.2704 28.6683 12.2104L23.637 1.75622C23.6104 1.7009 23.5521 1.66539 23.488 1.66537H17.9208C17.4928 1.66537 17.1459 1.33734 17.1459 0.932691C17.1459 0.528044 17.4928 0.200012 17.9208 0.200012H23.488Z" fill="#FA891A"/>
<path d="M10.4422 3.31378C10.9491 3.30003 11.418 3.67885 11.4325 4.15997C11.447 4.64109 11.0016 5.04222 10.4946 5.05598H5.38442C4.8933 5.0693 4.48123 4.71423 4.44276 4.25463L4.44026 4.20979L4.44005 4.16489C4.45079 3.70396 4.84081 3.32711 5.33192 3.31378L10.4422 3.31378Z" fill="#FA891A"/>
<path d="M49.7234 21.1868H47.2337V5.82283H53.2994C57.0338 5.82283 59.2745 7.55609 59.2745 10.616C59.2745 12.8201 57.8033 14.5105 55.3363 15.0669L59.7498 21.1868H56.7622L52.7109 15.4093H49.7234V21.1868ZM49.7234 7.79147V13.4406H53.1409C55.4495 13.4406 56.7622 12.4777 56.7622 10.616C56.7622 8.77579 55.4495 7.79147 53.1409 7.79147H49.7234Z" fill="#FA891A"/>
<path d="M66.4217 21.4008C63.0268 21.4008 60.5371 18.8758 60.5371 15.5163C60.5371 12.1567 63.0268 9.63173 66.4217 9.63173C69.8166 9.63173 72.3063 12.1567 72.3063 15.5163C72.3063 18.8758 69.8166 21.4008 66.4217 21.4008ZM66.4217 19.4963C68.3908 19.4963 69.9524 17.9985 69.9524 15.5163C69.9524 13.0341 68.3908 11.5576 66.4217 11.5576C64.4526 11.5576 62.9136 13.0341 62.9136 15.5163C62.9136 17.9985 64.4526 19.4963 66.4217 19.4963Z" fill="#FA891A"/>
<path d="M82.1281 16.522V9.84571H84.414V21.1868H82.2865V19.3893C81.6528 20.5663 80.2495 21.4008 78.62 21.4008C76.1982 21.4008 74.5234 20.0527 74.5234 17.1425V9.84571H76.8093V16.7146C76.8093 18.6832 77.8504 19.4963 79.3442 19.4963C80.8833 19.4963 82.1281 18.298 82.1281 16.522Z" fill="#FA891A"/>
<path d="M94.3559 19.0898V20.9942C93.6542 21.2938 93.0432 21.4008 92.3189 21.4008C90.1009 21.4008 88.5618 20.2667 88.5618 17.7631V11.686H85.9138V9.84571H88.5618V6.48617H90.8478V9.84571H94.469V11.686H90.8478V17.2709C90.8478 18.833 91.6399 19.3893 92.8621 19.3893C93.4053 19.3893 93.8806 19.3038 94.3559 19.0898Z" fill="#FA891A"/>
<path d="M101.253 21.4008C97.7902 21.4008 95.459 19.0256 95.459 15.4521C95.459 12.0925 97.8808 9.63173 101.185 9.63173C104.761 9.63173 107.138 12.3707 106.73 16.0512H97.7902C97.9713 18.3622 99.1935 19.7103 101.208 19.7103C102.905 19.7103 104.082 18.833 104.467 17.3565H106.73C106.142 19.8815 104.082 21.4008 101.253 21.4008ZM101.14 11.258C99.3066 11.258 98.0618 12.4991 97.8129 14.6175H104.309C104.195 12.5205 102.996 11.258 101.14 11.258Z" fill="#FA891A"/>
<path d="M116.004 16.3422H112.858V21.9411H110.368V5.86097H116.004C119.648 5.86097 122.002 7.84703 122.002 11.0568C122.002 14.2879 119.648 16.3422 116.004 16.3422ZM115.981 7.94377H112.858V14.2594H115.981C118.177 14.2594 119.512 12.9836 119.512 11.0792C119.512 9.17472 118.177 7.94377 115.981 7.94377Z" fill="#FA891A"/>
<path d="M131.802 17.0588V10.0714H134.088V21.9411H131.961V20.0599C131.327 21.2368 129.924 22.1651 128.294 22.1651C125.873 22.1651 124.198 20.6185 124.198 17.7083V10.0714H126.484V17.2604C126.484 19.229 127.525 20.1718 129.019 20.1718C130.558 20.1718 131.802 18.8349 131.802 17.0588Z" fill="#FA891A"/>
<path d="M139.572 21.9411H137.263V5.86097H139.572V21.9411Z" fill="#FA891A"/>
<path d="M152.25 18.4026C152.25 20.628 150.417 22.1651 147.226 22.1651C144.057 22.1651 142.179 20.5061 141.952 18.0666H144.148C144.238 19.4789 145.438 20.463 147.271 20.463C148.878 20.463 149.942 19.8532 149.942 18.7833C149.942 17.8418 149.331 17.3594 147.837 17.0812L145.89 16.7229C143.672 16.3163 142.427 15.0978 142.427 13.3859C142.427 11.3959 144.261 9.84741 147.045 9.84741C149.919 9.84741 151.865 11.479 152.069 13.8115H149.874C149.738 12.442 148.674 11.5495 147.067 11.5495C145.619 11.5495 144.646 12.2001 144.646 13.1844C144.646 14.1045 145.257 14.6073 146.705 14.8641L148.742 15.2448C151.119 15.6514 152.25 16.7763 152.25 18.4026Z" fill="#FA891A"/>
<path d="M159.68 22.1651C156.217 22.1651 153.886 19.5126 153.886 15.9391C153.886 12.5795 156.308 9.84741 159.612 9.84741C163.188 9.84741 165.565 12.8856 165.157 16.5661H156.217C156.398 18.8771 157.62 20.3958 159.635 20.3958C161.332 20.3958 162.509 19.4088 162.894 17.9323H165.157C164.569 20.4573 162.509 22.1651 159.68 22.1651ZM159.567 11.5495C157.734 11.5495 156.489 12.9472 156.24 15.0656H162.735C162.622 12.9686 161.423 11.5495 159.567 11.5495Z" fill="#FA891A"/>
<path fill-rule="evenodd" clip-rule="evenodd" d="M6.56015 16.8037C8.62514 14.5972 12.4094 14.5973 14.4744 16.8037C16.3032 18.7577 16.3032 21.5975 14.4744 23.5515C12.4057 25.7619 8.63025 25.736 6.56335 23.5549C4.71181 21.601 4.73469 18.7542 6.56015 16.8037ZM13.3199 17.7798C11.8692 16.2298 9.16549 16.2298 7.7148 17.7798C6.4023 19.1822 6.3946 21.1822 7.7116 22.572C9.17258 24.1137 11.8729 24.1215 13.3199 22.5754C14.6291 21.1765 14.6291 19.1787 13.3199 17.7798Z" stroke="#FA891A" stroke-width="0.4" mask="url(#path-1-outside-1_551_1128)"/>
<path fill-rule="evenodd" clip-rule="evenodd" d="M27.2721 16.8037C29.298 14.6467 33.0086 14.6467 35.0345 16.8037C36.8296 18.715 36.8296 21.3881 35.0345 23.2994C33.0049 25.4603 29.303 25.4349 27.2753 23.3028C25.4577 21.3916 25.4803 18.7115 27.2721 16.8037ZM33.8818 17.766C32.47 16.2629 29.8366 16.2629 28.4248 17.766C27.1484 19.1251 27.1411 20.9871 28.4216 22.3337C29.8436 23.8289 32.4737 23.8363 33.8818 22.3371C35.155 20.9815 35.155 19.1216 33.8818 17.766Z" stroke="#FA891A" stroke-width="0.4" mask="url(#path-1-outside-1_551_1128)"/>
<path d="M23.488 0.200012C24.1567 0.200031 24.7638 0.570281 25.0416 1.14746L30.0729 11.6015C30.3742 12.2276 30.226 12.966 29.7033 13.4431L24.3109 18.3651C23.9927 18.6555 23.5684 18.8177 23.1269 18.8177H18.6554C17.9964 18.8177 17.3961 18.4579 17.1131 17.8931L15.2952 14.266H5.26984L2.83542 19.0224C2.64915 19.3863 2.18565 19.538 1.80127 19.3608C1.41849 19.1844 1.25887 18.7484 1.44436 18.386L3.55312 14.266H3.35719C2.8465 14.266 2.36258 14.0492 2.03814 13.6749L0.594686 12.0096C-0.322003 10.952 0.470742 9.35905 1.91373 9.35905H12.373C12.4636 9.35905 12.537 9.28914 12.5368 9.20314L12.5166 2.1115C12.5163 2.02491 12.4415 1.95526 12.3502 1.95658L3.49268 1.95647C3.40271 1.95778 3.33065 2.02774 3.33137 2.11313L3.37539 7.16239C3.3789 7.56551 3.03613 7.89499 2.60976 7.89835C2.18334 7.9017 1.8348 7.57758 1.83128 7.17443L1.78727 2.12527C1.77951 1.2345 2.5307 0.504745 3.46926 0.491219H12.3268C13.2783 0.477507 14.0581 1.20443 14.0607 2.10749L14.081 9.19913C14.0836 10.096 13.2719 10.8244 12.3268 10.8244H1.91373C1.77536 10.8244 1.69936 10.9772 1.78727 11.0786L3.23072 12.7439C3.26183 12.7798 3.30823 12.8006 3.35719 12.8006H20.1554C20.5834 12.8006 20.9304 13.1287 20.9304 13.5333C20.9304 13.9379 20.5834 14.266 20.1554 14.266H17.0052L18.5075 17.2637C18.5346 17.3178 18.5922 17.3524 18.6554 17.3524H23.1269C23.1692 17.3524 23.21 17.3368 23.2405 17.3089L28.6328 12.387C28.683 12.3413 28.6971 12.2704 28.6683 12.2104L23.637 1.75622C23.6104 1.7009 23.5521 1.66539 23.488 1.66537H17.9208C17.4928 1.66537 17.1459 1.33734 17.1459 0.932691C17.1459 0.528044 17.4928 0.200012 17.9208 0.200012H23.488Z" stroke="#FA891A" stroke-width="0.4" mask="url(#path-1-outside-1_551_1128)"/>
<path d="M10.4422 3.31378C10.9491 3.30003 11.418 3.67885 11.4325 4.15997C11.447 4.64109 11.0016 5.04222 10.4946 5.05598H5.38442C4.8933 5.0693 4.48123 4.71423 4.44276 4.25463L4.44026 4.20979L4.44005 4.16489C4.45079 3.70396 4.84081 3.32711 5.33192 3.31378L10.4422 3.31378Z" stroke="#FA891A" stroke-width="0.4" mask="url(#path-1-outside-1_551_1128)"/>
<path d="M49.7234 21.1868H47.2337V5.82283H53.2994C57.0338 5.82283 59.2745 7.55609 59.2745 10.616C59.2745 12.8201 57.8033 14.5105 55.3363 15.0669L59.7498 21.1868H56.7622L52.7109 15.4093H49.7234V21.1868ZM49.7234 7.79147V13.4406H53.1409C55.4495 13.4406 56.7622 12.4777 56.7622 10.616C56.7622 8.77579 55.4495 7.79147 53.1409 7.79147H49.7234Z" stroke="#FA891A" stroke-width="0.4" mask="url(#path-1-outside-1_551_1128)"/>
<path d="M66.4217 21.4008C63.0268 21.4008 60.5371 18.8758 60.5371 15.5163C60.5371 12.1567 63.0268 9.63173 66.4217 9.63173C69.8166 9.63173 72.3063 12.1567 72.3063 15.5163C72.3063 18.8758 69.8166 21.4008 66.4217 21.4008ZM66.4217 19.4963C68.3908 19.4963 69.9524 17.9985 69.9524 15.5163C69.9524 13.0341 68.3908 11.5576 66.4217 11.5576C64.4526 11.5576 62.9136 13.0341 62.9136 15.5163C62.9136 17.9985 64.4526 19.4963 66.4217 19.4963Z" stroke="#FA891A" stroke-width="0.4" mask="url(#path-1-outside-1_551_1128)"/>
<path d="M82.1281 16.522V9.84571H84.414V21.1868H82.2865V19.3893C81.6528 20.5663 80.2495 21.4008 78.62 21.4008C76.1982 21.4008 74.5234 20.0527 74.5234 17.1425V9.84571H76.8093V16.7146C76.8093 18.6832 77.8504 19.4963 79.3442 19.4963C80.8833 19.4963 82.1281 18.298 82.1281 16.522Z" stroke="#FA891A" stroke-width="0.4" mask="url(#path-1-outside-1_551_1128)"/>
<path d="M94.3559 19.0898V20.9942C93.6542 21.2938 93.0432 21.4008 92.3189 21.4008C90.1009 21.4008 88.5618 20.2667 88.5618 17.7631V11.686H85.9138V9.84571H88.5618V6.48617H90.8478V9.84571H94.469V11.686H90.8478V17.2709C90.8478 18.833 91.6399 19.3893 92.8621 19.3893C93.4053 19.3893 93.8806 19.3038 94.3559 19.0898Z" stroke="#FA891A" stroke-width="0.4" mask="url(#path-1-outside-1_551_1128)"/>
<path d="M101.253 21.4008C97.7902 21.4008 95.459 19.0256 95.459 15.4521C95.459 12.0925 97.8808 9.63173 101.185 9.63173C104.761 9.63173 107.138 12.3707 106.73 16.0512H97.7902C97.9713 18.3622 99.1935 19.7103 101.208 19.7103C102.905 19.7103 104.082 18.833 104.467 17.3565H106.73C106.142 19.8815 104.082 21.4008 101.253 21.4008ZM101.14 11.258C99.3066 11.258 98.0618 12.4991 97.8129 14.6175H104.309C104.195 12.5205 102.996 11.258 101.14 11.258Z" stroke="#FA891A" stroke-width="0.4" mask="url(#path-1-outside-1_551_1128)"/>
<path d="M116.004 16.3422H112.858V21.9411H110.368V5.86097H116.004C119.648 5.86097 122.002 7.84703 122.002 11.0568C122.002 14.2879 119.648 16.3422 116.004 16.3422ZM115.981 7.94377H112.858V14.2594H115.981C118.177 14.2594 119.512 12.9836 119.512 11.0792C119.512 9.17472 118.177 7.94377 115.981 7.94377Z" stroke="#FA891A" stroke-width="0.4" mask="url(#path-1-outside-1_551_1128)"/>
<path d="M131.802 17.0588V10.0714H134.088V21.9411H131.961V20.0599C131.327 21.2368 129.924 22.1651 128.294 22.1651C125.873 22.1651 124.198 20.6185 124.198 17.7083V10.0714H126.484V17.2604C126.484 19.229 127.525 20.1718 129.019 20.1718C130.558 20.1718 131.802 18.8349 131.802 17.0588Z" stroke="#FA891A" stroke-width="0.4" mask="url(#path-1-outside-1_551_1128)"/>
<path d="M139.572 21.9411H137.263V5.86097H139.572V21.9411Z" stroke="#FA891A" stroke-width="0.4" mask="url(#path-1-outside-1_551_1128)"/>
<path d="M152.25 18.4026C152.25 20.628 150.417 22.1651 147.226 22.1651C144.057 22.1651 142.179 20.5061 141.952 18.0666H144.148C144.238 19.4789 145.438 20.463 147.271 20.463C148.878 20.463 149.942 19.8532 149.942 18.7833C149.942 17.8418 149.331 17.3594 147.837 17.0812L145.89 16.7229C143.672 16.3163 142.427 15.0978 142.427 13.3859C142.427 11.3959 144.261 9.84741 147.045 9.84741C149.919 9.84741 151.865 11.479 152.069 13.8115H149.874C149.738 12.442 148.674 11.5495 147.067 11.5495C145.619 11.5495 144.646 12.2001 144.646 13.1844C144.646 14.1045 145.257 14.6073 146.705 14.8641L148.742 15.2448C151.119 15.6514 152.25 16.7763 152.25 18.4026Z" stroke="#FA891A" stroke-width="0.4" mask="url(#path-1-outside-1_551_1128)"/>
<path d="M159.68 22.1651C156.217 22.1651 153.886 19.5126 153.886 15.9391C153.886 12.5795 156.308 9.84741 159.612 9.84741C163.188 9.84741 165.565 12.8856 165.157 16.5661H156.217C156.398 18.8771 157.62 20.3958 159.635 20.3958C161.332 20.3958 162.509 19.4088 162.894 17.9323H165.157C164.569 20.4573 162.509 22.1651 159.68 22.1651ZM159.567 11.5495C157.734 11.5495 156.489 12.9472 156.24 15.0656H162.735C162.622 12.9686 161.423 11.5495 159.567 11.5495Z" stroke="#FA891A" stroke-width="0.4" mask="url(#path-1-outside-1_551_1128)"/>
</svg>
